solid ASCII
 facet normal -1 0 0
  outer loop
   vertex -20 20 -4
   vertex -20 -20 -4
   vertex -20 20 0
  endloop
 endfacet
 facet normal -1 -0 0
  outer loop
   vertex -20 20 0
   vertex -20 -20 -4
   vertex -20 -20 0
  endloop
 endfacet
 facet normal 0 1 -0
  outer loop
   vertex 20 20 -4
   vertex -20 20 -4
   vertex 20 20 0
  endloop
 endfacet
 facet normal 0 1 0
  outer loop
   vertex 20 20 0
   vertex -20 20 -4
   vertex -20 20 0
  endloop
 endfacet
 facet normal 1 0 0
  outer loop
   vertex 20 -20 -4
   vertex 20 20 -4
   vertex 20 -20 0
  endloop
 endfacet
 facet normal 1 -0 0
  outer loop
   vertex 20 -20 0
   vertex 20 20 -4
   vertex 20 20 0
  endloop
 endfacet
 facet normal 0 -1 0
  outer loop
   vertex -20 -20 -4
   vertex 20 -20 -4
   vertex -20 -20 0
  endloop
 endfacet
 facet normal 0 -1 0
  outer loop
   vertex -20 -20 0
   vertex 20 -20 -4
   vertex 20 -20 0
  endloop
 endfacet
 facet normal 5.55112e-17 0 -1
  outer loop
   vertex -20 -20 -4
   vertex -20 20 -4
   vertex 20 -20 -4
  endloop
 endfacet
 facet normal 5.55112e-17 0 -1
  outer loop
   vertex 20 -20 -4
   vertex -20 20 -4
   vertex 20 20 -4
  endloop
 endfacet
 facet normal 0 -0 1
  outer loop
   vertex 20 -20 0
   vertex 20 20 0
   vertex -20 -20 0
  endloop
 endfacet
 facet normal 0 0 1
  outer loop
   vertex -20 -20 0
   vertex 20 20 0
   vertex -20 20 0
  endloop
 endfacet
endsolid ASCII
