solid ASCII
 facet normal 1 0 0
  outer loop
   vertex 1.4 -0.35 0.1
   vertex 1.4 0.35 0.1
   vertex 1.4 -0.35 0.275
  endloop
 endfacet
 facet normal 1 -0 0
  outer loop
   vertex 1.4 -0.35 0.275
   vertex 1.4 0.35 0.1
   vertex 1.4 0.35 0.275
  endloop
 endfacet
 facet normal 0 -1 0
  outer loop
   vertex 0.2 -0.35 0.1
   vertex 1.4 -0.35 0.1
   vertex 0.2 -0.35 0.275
  endloop
 endfacet
 facet normal 0 -1 0
  outer loop
   vertex 0.2 -0.35 0.275
   vertex 1.4 -0.35 0.1
   vertex 1.4 -0.35 0.275
  endloop
 endfacet
 facet normal -1 0 0
  outer loop
   vertex 0.2 0.35 0.1
   vertex 0.2 -0.35 0.1
   vertex 0.2 0.35 0.275
  endloop
 endfacet
 facet normal -1 -0 0
  outer loop
   vertex 0.2 0.35 0.275
   vertex 0.2 -0.35 0.1
   vertex 0.2 -0.35 0.275
  endloop
 endfacet
 facet normal 0 1 -0
  outer loop
   vertex 1.4 0.35 0.1
   vertex 0.2 0.35 0.1
   vertex 1.4 0.35 0.275
  endloop
 endfacet
 facet normal 0 1 0
  outer loop
   vertex 1.4 0.35 0.275
   vertex 0.2 0.35 0.1
   vertex 0.2 0.35 0.275
  endloop
 endfacet
 facet normal 0 0 -1
  outer loop
   vertex 0.2 0.35 0.1
   vertex 1.4 0.35 0.1
   vertex 0.2 -0.35 0.1
  endloop
 endfacet
 facet normal 0 0 -1
  outer loop
   vertex 0.2 -0.35 0.1
   vertex 1.4 0.35 0.1
   vertex 1.4 -0.35 0.1
  endloop
 endfacet
 facet normal 0 0 1
  outer loop
   vertex 1.4 0.35 0.275
   vertex 0.2 0.35 0.275
   vertex 1.4 -0.35 0.275
  endloop
 endfacet
 facet normal 0 0 1
  outer loop
   vertex 1.4 -0.35 0.275
   vertex 0.2 0.35 0.275
   vertex 0.2 -0.35 0.275
  endloop
 endfacet
endsolid ASCII
