solid ASCII
 facet normal -1 0 0
  outer loop
   vertex -60 60 -12
   vertex -60 -60 -12
   vertex -60 60 0
  endloop
 endfacet
 facet normal -1 -0 0
  outer loop
   vertex -60 60 0
   vertex -60 -60 -12
   vertex -60 -60 0
  endloop
 endfacet
 facet normal 0 1 -0
  outer loop
   vertex 60 60 -12
   vertex -60 60 -12
   vertex 60 60 0
  endloop
 endfacet
 facet normal 0 1 0
  outer loop
   vertex 60 60 0
   vertex -60 60 -12
   vertex -60 60 0
  endloop
 endfacet
 facet normal 1 0 0
  outer loop
   vertex 60 -60 -12
   vertex 60 60 -12
   vertex 60 -60 0
  endloop
 endfacet
 facet normal 1 -0 0
  outer loop
   vertex 60 -60 0
   vertex 60 60 -12
   vertex 60 60 0
  endloop
 endfacet
 facet normal 0 -1 0
  outer loop
   vertex -60 -60 -12
   vertex 60 -60 -12
   vertex -60 -60 0
  endloop
 endfacet
 facet normal 0 -1 0
  outer loop
   vertex -60 -60 0
   vertex 60 -60 -12
   vertex 60 -60 0
  endloop
 endfacet
 facet normal 0 0 -1
  outer loop
   vertex -60 -60 -12
   vertex -60 60 -12
   vertex 60 -60 -12
  endloop
 endfacet
 facet normal 0 0 -1
  outer loop
   vertex 60 -60 -12
   vertex -60 60 -12
   vertex 60 60 -12
  endloop
 endfacet
 facet normal 0 -0 1
  outer loop
   vertex 60 -60 0
   vertex 60 60 0
   vertex -60 -60 0
  endloop
 endfacet
 facet normal 0 0 1
  outer loop
   vertex -60 -60 0
   vertex 60 60 0
   vertex -60 60 0
  endloop
 endfacet
endsolid ASCII
