solid patch0
 facet normal -0 -0 -1
  outer loop
   vertex 0.59 0.39 0.39
   vertex 0.59 0.01 0.39
   vertex 0.01 0.39 0.39
  endloop
 endfacet
 facet normal 0 0 -1
  outer loop
   vertex 0.01 0.39 0.39
   vertex 0.59 0.01 0.39
   vertex 0.01 0.01 0.39
  endloop
 endfacet
 facet normal -1 0 0
  outer loop
   vertex 0.59 0.39 0.01
   vertex 0.59 0.01 0.01
   vertex 0.59 0.39 0.39
  endloop
 endfacet
 facet normal -1 -0 0
  outer loop
   vertex 0.59 0.39 0.39
   vertex 0.59 0.01 0.01
   vertex 0.59 0.01 0.39
  endloop
 endfacet
 facet normal 0 -1 0
  outer loop
   vertex 0.01 0.39 0.01
   vertex 0.59 0.39 0.01
   vertex 0.01 0.39 0.39
  endloop
 endfacet
 facet normal 0 -1 0
  outer loop
   vertex 0.01 0.39 0.39
   vertex 0.59 0.39 0.01
   vertex 0.59 0.39 0.39
  endloop
 endfacet
 facet normal 1 0 0
  outer loop
   vertex 0.01 0.01 0.01
   vertex 0.01 0.39 0.01
   vertex 0.01 0.01 0.39
  endloop
 endfacet
 facet normal 1 -0 0
  outer loop
   vertex 0.01 0.01 0.39
   vertex 0.01 0.39 0.01
   vertex 0.01 0.39 0.39
  endloop
 endfacet
 facet normal 0 1 -0
  outer loop
   vertex 0.59 0.01 0.01
   vertex 0.01 0.01 0.01
   vertex 0.59 0.01 0.39
  endloop
 endfacet
 facet normal 0 1 0
  outer loop
   vertex 0.59 0.01 0.39
   vertex 0.01 0.01 0.01
   vertex 0.01 0.01 0.39
  endloop
 endfacet
 facet normal 0 -0 1
  outer loop
   vertex 0.59 0.01 0.01
   vertex 0.59 0.39 0.01
   vertex 0.01 0.01 0.01
  endloop
 endfacet
 facet normal 0 0 1
  outer loop
   vertex 0.01 0.01 0.01
   vertex 0.59 0.39 0.01
   vertex 0.01 0.39 0.01
  endloop
 endfacet
 facet normal 0 -1 0
  outer loop
   vertex -0.6 -0.4 5.96046e-09
   vertex 0.6 -0.4 5.96046e-09
   vertex -0.6 -0.4 0.8
  endloop
 endfacet
 facet normal 0 -1 0
  outer loop
   vertex -0.6 -0.4 0.8
   vertex 0.6 -0.4 5.96046e-09
   vertex 0.6 -0.4 0.8
  endloop
 endfacet
 facet normal 1 0 0
  outer loop
   vertex 0.6 -0.4 5.96046e-09
   vertex 0.6 0.4 5.96046e-09
   vertex 0.6 -0.4 0.8
  endloop
 endfacet
 facet normal 1 -0 0
  outer loop
   vertex 0.6 -0.4 0.8
   vertex 0.6 0.4 5.96046e-09
   vertex 0.6 0.4 0.8
  endloop
 endfacet
 facet normal 0 1 -0
  outer loop
   vertex 0.6 0.4 5.96046e-09
   vertex -0.6 0.4 5.96046e-09
   vertex 0.6 0.4 0.8
  endloop
 endfacet
 facet normal 0 1 0
  outer loop
   vertex 0.6 0.4 0.8
   vertex -0.6 0.4 5.96046e-09
   vertex -0.6 0.4 0.8
  endloop
 endfacet
 facet normal -1 0 0
  outer loop
   vertex -0.6 0.4 5.96046e-09
   vertex -0.6 -0.4 5.96046e-09
   vertex -0.6 0.4 0.8
  endloop
 endfacet
 facet normal -1 -0 0
  outer loop
   vertex -0.6 0.4 0.8
   vertex -0.6 -0.4 5.96046e-09
   vertex -0.6 -0.4 0.8
  endloop
 endfacet
 facet normal -0 -0 -1
  outer loop
   vertex 0.6 0.4 5.96046e-09
   vertex 0.6 -0.4 5.96046e-09
   vertex -0.6 0.4 5.96046e-09
  endloop
 endfacet
 facet normal 0 0 -1
  outer loop
   vertex -0.6 0.4 5.96046e-09
   vertex 0.6 -0.4 5.96046e-09
   vertex -0.6 -0.4 5.96046e-09
  endloop
 endfacet
 facet normal 0 -0 1
  outer loop
   vertex 0.59 -0.39 0.01
   vertex 0.59 -0.01 0.01
   vertex 0.01 -0.39 0.01
  endloop
 endfacet
 facet normal 0 0 1
  outer loop
   vertex 0.01 -0.39 0.01
   vertex 0.59 -0.01 0.01
   vertex 0.01 -0.01 0.01
  endloop
 endfacet
 facet normal 0 0 -1
  outer loop
   vertex -0.59 0.01 0.39
   vertex -0.59 0.39 0.39
   vertex -0.01 0.01 0.39
  endloop
 endfacet
 facet normal 0 0 -1
  outer loop
   vertex -0.01 0.01 0.39
   vertex -0.59 0.39 0.39
   vertex -0.01 0.39 0.39
  endloop
 endfacet
 facet normal 1 0 0
  outer loop
   vertex -0.59 0.01 0.01
   vertex -0.59 0.39 0.01
   vertex -0.59 0.01 0.39
  endloop
 endfacet
 facet normal 1 -0 0
  outer loop
   vertex -0.59 0.01 0.39
   vertex -0.59 0.39 0.01
   vertex -0.59 0.39 0.39
  endloop
 endfacet
 facet normal 0 -1 0
  outer loop
   vertex -0.59 0.39 0.01
   vertex -0.01 0.39 0.01
   vertex -0.59 0.39 0.39
  endloop
 endfacet
 facet normal 0 -1 0
  outer loop
   vertex -0.59 0.39 0.39
   vertex -0.01 0.39 0.01
   vertex -0.01 0.39 0.39
  endloop
 endfacet
 facet normal -1 0 0
  outer loop
   vertex -0.01 0.39 0.01
   vertex -0.01 0.01 0.01
   vertex -0.01 0.39 0.39
  endloop
 endfacet
 facet normal -1 -0 0
  outer loop
   vertex -0.01 0.39 0.39
   vertex -0.01 0.01 0.01
   vertex -0.01 0.01 0.39
  endloop
 endfacet
 facet normal 0 1 -0
  outer loop
   vertex -0.01 0.01 0.01
   vertex -0.59 0.01 0.01
   vertex -0.01 0.01 0.39
  endloop
 endfacet
 facet normal 0 1 0
  outer loop
   vertex -0.01 0.01 0.39
   vertex -0.59 0.01 0.01
   vertex -0.59 0.01 0.39
  endloop
 endfacet
 facet normal -0 0 1
  outer loop
   vertex -0.59 0.39 0.01
   vertex -0.59 0.01 0.01
   vertex -0.01 0.39 0.01
  endloop
 endfacet
 facet normal 0 0 1
  outer loop
   vertex -0.01 0.39 0.01
   vertex -0.59 0.01 0.01
   vertex -0.01 0.01 0.01
  endloop
 endfacet
 facet normal 0 0 -1
  outer loop
   vertex -0.59 -0.39 0.39
   vertex -0.59 -0.01 0.39
   vertex -0.01 -0.39 0.39
  endloop
 endfacet
 facet normal 0 0 -1
  outer loop
   vertex -0.01 -0.39 0.39
   vertex -0.59 -0.01 0.39
   vertex -0.01 -0.01 0.39
  endloop
 endfacet
 facet normal 1 0 0
  outer loop
   vertex -0.59 -0.39 0.01
   vertex -0.59 -0.01 0.01
   vertex -0.59 -0.39 0.39
  endloop
 endfacet
 facet normal 1 -0 0
  outer loop
   vertex -0.59 -0.39 0.39
   vertex -0.59 -0.01 0.01
   vertex -0.59 -0.01 0.39
  endloop
 endfacet
 facet normal 0 1 -0
  outer loop
   vertex -0.01 -0.39 0.01
   vertex -0.59 -0.39 0.01
   vertex -0.01 -0.39 0.39
  endloop
 endfacet
 facet normal 0 1 0
  outer loop
   vertex -0.01 -0.39 0.39
   vertex -0.59 -0.39 0.01
   vertex -0.59 -0.39 0.39
  endloop
 endfacet
 facet normal -1 0 0
  outer loop
   vertex -0.01 -0.01 0.01
   vertex -0.01 -0.39 0.01
   vertex -0.01 -0.01 0.39
  endloop
 endfacet
 facet normal -1 -0 0
  outer loop
   vertex -0.01 -0.01 0.39
   vertex -0.01 -0.39 0.01
   vertex -0.01 -0.39 0.39
  endloop
 endfacet
 facet normal -0 -0 -1
  outer loop
   vertex 0.59 -0.01 0.79
   vertex 0.59 -0.39 0.79
   vertex 0.01 -0.01 0.79
  endloop
 endfacet
 facet normal 0 0 -1
  outer loop
   vertex 0.01 -0.01 0.79
   vertex 0.59 -0.39 0.79
   vertex 0.01 -0.39 0.79
  endloop
 endfacet
 facet normal 0 -1 0
  outer loop
   vertex -0.59 -0.01 0.01
   vertex -0.01 -0.01 0.01
   vertex -0.59 -0.01 0.39
  endloop
 endfacet
 facet normal 0 -1 0
  outer loop
   vertex -0.59 -0.01 0.39
   vertex -0.01 -0.01 0.01
   vertex -0.01 -0.01 0.39
  endloop
 endfacet
 facet normal -0 0 1
  outer loop
   vertex -0.59 -0.01 0.01
   vertex -0.59 -0.39 0.01
   vertex -0.01 -0.01 0.01
  endloop
 endfacet
 facet normal 0 0 1
  outer loop
   vertex -0.01 -0.01 0.01
   vertex -0.59 -0.39 0.01
   vertex -0.01 -0.39 0.01
  endloop
 endfacet
 facet normal -0 -0 -1
  outer loop
   vertex 0.59 -0.01 0.39
   vertex 0.59 -0.39 0.39
   vertex 0.01 -0.01 0.39
  endloop
 endfacet
 facet normal 0 0 -1
  outer loop
   vertex 0.01 -0.01 0.39
   vertex 0.59 -0.39 0.39
   vertex 0.01 -0.39 0.39
  endloop
 endfacet
 facet normal -1 0 0
  outer loop
   vertex 0.59 -0.01 0.01
   vertex 0.59 -0.39 0.01
   vertex 0.59 -0.01 0.39
  endloop
 endfacet
 facet normal -1 -0 0
  outer loop
   vertex 0.59 -0.01 0.39
   vertex 0.59 -0.39 0.01
   vertex 0.59 -0.39 0.39
  endloop
 endfacet
 facet normal 0 1 -0
  outer loop
   vertex 0.59 -0.39 0.01
   vertex 0.01 -0.39 0.01
   vertex 0.59 -0.39 0.39
  endloop
 endfacet
 facet normal 0 1 0
  outer loop
   vertex 0.59 -0.39 0.39
   vertex 0.01 -0.39 0.01
   vertex 0.01 -0.39 0.39
  endloop
 endfacet
 facet normal 1 0 0
  outer loop
   vertex 0.01 -0.39 0.01
   vertex 0.01 -0.01 0.01
   vertex 0.01 -0.39 0.39
  endloop
 endfacet
 facet normal 1 -0 0
  outer loop
   vertex 0.01 -0.39 0.39
   vertex 0.01 -0.01 0.01
   vertex 0.01 -0.01 0.39
  endloop
 endfacet
 facet normal 0 -1 0
  outer loop
   vertex 0.01 -0.01 0.01
   vertex 0.59 -0.01 0.01
   vertex 0.01 -0.01 0.39
  endloop
 endfacet
 facet normal 0 -1 0
  outer loop
   vertex 0.01 -0.01 0.39
   vertex 0.59 -0.01 0.01
   vertex 0.59 -0.01 0.39
  endloop
 endfacet
 facet normal -0 0 1
  outer loop
   vertex -0.59 0.39 0.41
   vertex -0.59 0.01 0.41
   vertex -0.01 0.39 0.41
  endloop
 endfacet
 facet normal 0 0 1
  outer loop
   vertex -0.01 0.39 0.41
   vertex -0.59 0.01 0.41
   vertex -0.01 0.01 0.41
  endloop
 endfacet
 facet normal 0 -0 1
  outer loop
   vertex 0.6 -0.4 0.8
   vertex 0.6 0.4 0.8
   vertex -0.6 -0.4 0.8
  endloop
 endfacet
 facet normal 0 0 1
  outer loop
   vertex -0.6 -0.4 0.8
   vertex 0.6 0.4 0.8
   vertex -0.6 0.4 0.8
  endloop
 endfacet
 facet normal 1 0 0
  outer loop
   vertex -0.59 0.39 0.79
   vertex -0.59 0.01 0.79
   vertex -0.59 0.39 0.41
  endloop
 endfacet
 facet normal 1 0 0
  outer loop
   vertex -0.59 0.39 0.41
   vertex -0.59 0.01 0.79
   vertex -0.59 0.01 0.41
  endloop
 endfacet
 facet normal -0 -1 -0
  outer loop
   vertex -0.01 0.39 0.79
   vertex -0.59 0.39 0.79
   vertex -0.01 0.39 0.41
  endloop
 endfacet
 facet normal 0 -1 0
  outer loop
   vertex -0.01 0.39 0.41
   vertex -0.59 0.39 0.79
   vertex -0.59 0.39 0.41
  endloop
 endfacet
 facet normal -1 0 0
  outer loop
   vertex -0.01 0.01 0.79
   vertex -0.01 0.39 0.79
   vertex -0.01 0.01 0.41
  endloop
 endfacet
 facet normal -1 0 0
  outer loop
   vertex -0.01 0.01 0.41
   vertex -0.01 0.39 0.79
   vertex -0.01 0.39 0.41
  endloop
 endfacet
 facet normal -0 1 0
  outer loop
   vertex -0.59 0.01 0.79
   vertex -0.01 0.01 0.79
   vertex -0.59 0.01 0.41
  endloop
 endfacet
 facet normal 0 1 0
  outer loop
   vertex -0.59 0.01 0.41
   vertex -0.01 0.01 0.79
   vertex -0.01 0.01 0.41
  endloop
 endfacet
 facet normal 0 0 -1
  outer loop
   vertex -0.59 0.01 0.79
   vertex -0.59 0.39 0.79
   vertex -0.01 0.01 0.79
  endloop
 endfacet
 facet normal 0 0 -1
  outer loop
   vertex -0.01 0.01 0.79
   vertex -0.59 0.39 0.79
   vertex -0.01 0.39 0.79
  endloop
 endfacet
 facet normal 0 -0 1
  outer loop
   vertex 0.59 0.01 0.41
   vertex 0.59 0.39 0.41
   vertex 0.01 0.01 0.41
  endloop
 endfacet
 facet normal 0 0 1
  outer loop
   vertex 0.01 0.01 0.41
   vertex 0.59 0.39 0.41
   vertex 0.01 0.39 0.41
  endloop
 endfacet
 facet normal -1 0 0
  outer loop
   vertex 0.59 0.01 0.79
   vertex 0.59 0.39 0.79
   vertex 0.59 0.01 0.41
  endloop
 endfacet
 facet normal -1 0 0
  outer loop
   vertex 0.59 0.01 0.41
   vertex 0.59 0.39 0.79
   vertex 0.59 0.39 0.41
  endloop
 endfacet
 facet normal -0 -1 -0
  outer loop
   vertex 0.59 0.39 0.79
   vertex 0.01 0.39 0.79
   vertex 0.59 0.39 0.41
  endloop
 endfacet
 facet normal 0 -1 0
  outer loop
   vertex 0.59 0.39 0.41
   vertex 0.01 0.39 0.79
   vertex 0.01 0.39 0.41
  endloop
 endfacet
 facet normal 1 0 0
  outer loop
   vertex 0.01 0.39 0.79
   vertex 0.01 0.01 0.79
   vertex 0.01 0.39 0.41
  endloop
 endfacet
 facet normal 1 0 0
  outer loop
   vertex 0.01 0.39 0.41
   vertex 0.01 0.01 0.79
   vertex 0.01 0.01 0.41
  endloop
 endfacet
 facet normal -0 1 0
  outer loop
   vertex 0.01 0.01 0.79
   vertex 0.59 0.01 0.79
   vertex 0.01 0.01 0.41
  endloop
 endfacet
 facet normal 0 1 0
  outer loop
   vertex 0.01 0.01 0.41
   vertex 0.59 0.01 0.79
   vertex 0.59 0.01 0.41
  endloop
 endfacet
 facet normal -0 -0 -1
  outer loop
   vertex 0.59 0.39 0.79
   vertex 0.59 0.01 0.79
   vertex 0.01 0.39 0.79
  endloop
 endfacet
 facet normal 0 0 -1
  outer loop
   vertex 0.01 0.39 0.79
   vertex 0.59 0.01 0.79
   vertex 0.01 0.01 0.79
  endloop
 endfacet
 facet normal -0 0 1
  outer loop
   vertex -0.59 -0.01 0.41
   vertex -0.59 -0.39 0.41
   vertex -0.01 -0.01 0.41
  endloop
 endfacet
 facet normal 0 0 1
  outer loop
   vertex -0.01 -0.01 0.41
   vertex -0.59 -0.39 0.41
   vertex -0.01 -0.39 0.41
  endloop
 endfacet
 facet normal 1 0 0
  outer loop
   vertex -0.59 -0.01 0.79
   vertex -0.59 -0.39 0.79
   vertex -0.59 -0.01 0.41
  endloop
 endfacet
 facet normal 1 0 0
  outer loop
   vertex -0.59 -0.01 0.41
   vertex -0.59 -0.39 0.79
   vertex -0.59 -0.39 0.41
  endloop
 endfacet
 facet normal -0 1 0
  outer loop
   vertex -0.59 -0.39 0.79
   vertex -0.01 -0.39 0.79
   vertex -0.59 -0.39 0.41
  endloop
 endfacet
 facet normal 0 1 0
  outer loop
   vertex -0.59 -0.39 0.41
   vertex -0.01 -0.39 0.79
   vertex -0.01 -0.39 0.41
  endloop
 endfacet
 facet normal -1 0 0
  outer loop
   vertex -0.01 -0.39 0.79
   vertex -0.01 -0.01 0.79
   vertex -0.01 -0.39 0.41
  endloop
 endfacet
 facet normal -1 0 0
  outer loop
   vertex -0.01 -0.39 0.41
   vertex -0.01 -0.01 0.79
   vertex -0.01 -0.01 0.41
  endloop
 endfacet
 facet normal -0 -1 -0
  outer loop
   vertex -0.01 -0.01 0.79
   vertex -0.59 -0.01 0.79
   vertex -0.01 -0.01 0.41
  endloop
 endfacet
 facet normal 0 -1 0
  outer loop
   vertex -0.01 -0.01 0.41
   vertex -0.59 -0.01 0.79
   vertex -0.59 -0.01 0.41
  endloop
 endfacet
 facet normal 0 0 -1
  outer loop
   vertex -0.59 -0.39 0.79
   vertex -0.59 -0.01 0.79
   vertex -0.01 -0.39 0.79
  endloop
 endfacet
 facet normal 0 0 -1
  outer loop
   vertex -0.01 -0.39 0.79
   vertex -0.59 -0.01 0.79
   vertex -0.01 -0.01 0.79
  endloop
 endfacet
 facet normal 0 -0 1
  outer loop
   vertex 0.59 -0.39 0.41
   vertex 0.59 -0.01 0.41
   vertex 0.01 -0.39 0.41
  endloop
 endfacet
 facet normal 0 0 1
  outer loop
   vertex 0.01 -0.39 0.41
   vertex 0.59 -0.01 0.41
   vertex 0.01 -0.01 0.41
  endloop
 endfacet
 facet normal -1 0 0
  outer loop
   vertex 0.59 -0.39 0.79
   vertex 0.59 -0.01 0.79
   vertex 0.59 -0.39 0.41
  endloop
 endfacet
 facet normal -1 0 0
  outer loop
   vertex 0.59 -0.39 0.41
   vertex 0.59 -0.01 0.79
   vertex 0.59 -0.01 0.41
  endloop
 endfacet
 facet normal -0 1 0
  outer loop
   vertex 0.01 -0.39 0.79
   vertex 0.59 -0.39 0.79
   vertex 0.01 -0.39 0.41
  endloop
 endfacet
 facet normal 0 1 0
  outer loop
   vertex 0.01 -0.39 0.41
   vertex 0.59 -0.39 0.79
   vertex 0.59 -0.39 0.41
  endloop
 endfacet
 facet normal 1 0 0
  outer loop
   vertex 0.01 -0.01 0.79
   vertex 0.01 -0.39 0.79
   vertex 0.01 -0.01 0.41
  endloop
 endfacet
 facet normal 1 0 0
  outer loop
   vertex 0.01 -0.01 0.41
   vertex 0.01 -0.39 0.79
   vertex 0.01 -0.39 0.41
  endloop
 endfacet
 facet normal -0 -1 -0
  outer loop
   vertex 0.59 -0.01 0.79
   vertex 0.01 -0.01 0.79
   vertex 0.59 -0.01 0.41
  endloop
 endfacet
 facet normal 0 -1 0
  outer loop
   vertex 0.59 -0.01 0.41
   vertex 0.01 -0.01 0.79
   vertex 0.01 -0.01 0.41
  endloop
 endfacet
endsolid patch0
