solid ASCII
 facet normal -4.62593e-17 -1 0
  outer loop
   vertex -0.6 -0.5 0
   vertex 0.6 -0.5 0
   vertex -0.6 -0.5 0.4
  endloop
 endfacet
 facet normal -4.62593e-17 -1 0
  outer loop
   vertex -0.6 -0.5 0.4
   vertex 0.6 -0.5 0
   vertex 0.6 -0.5 0.4
  endloop
 endfacet
 facet normal 1 0 0
  outer loop
   vertex 0.6 -0.5 0
   vertex 0.6 0.5 0
   vertex 0.6 -0.5 0.4
  endloop
 endfacet
 facet normal 1 -0 0
  outer loop
   vertex 0.6 -0.5 0.4
   vertex 0.6 0.5 0
   vertex 0.6 0.5 0.4
  endloop
 endfacet
 facet normal -1 0 0
  outer loop
   vertex -0.6 0.5 0
   vertex -0.6 -0.5 0
   vertex -0.6 0.5 0.4
  endloop
 endfacet
 facet normal -1 -0 0
  outer loop
   vertex -0.6 0.5 0.4
   vertex -0.6 -0.5 0
   vertex -0.6 -0.5 0.4
  endloop
 endfacet
 facet normal 4.62593e-17 1 -0
  outer loop
   vertex 0.6 0.5 0
   vertex -0.6 0.5 0
   vertex 0.6 0.5 0.4
  endloop
 endfacet
 facet normal 4.62593e-17 1 0
  outer loop
   vertex 0.6 0.5 0.4
   vertex -0.6 0.5 0
   vertex -0.6 0.5 0.4
  endloop
 endfacet
 facet normal 0 0 1
  outer loop
   vertex -0.6 0.5 0.4
   vertex -0.6 -0.5 0.4
   vertex 0.6 0.5 0.4
  endloop
 endfacet
 facet normal 0 0 1
  outer loop
   vertex 0.6 0.5 0.4
   vertex -0.6 -0.5 0.4
   vertex 0.6 -0.5 0.4
  endloop
 endfacet
 facet normal 0 0 -1
  outer loop
   vertex -0.6 -0.5 0
   vertex -0.6 0.5 0
   vertex 0.6 -0.5 0
  endloop
 endfacet
 facet normal 0 0 -1
  outer loop
   vertex 0.6 -0.5 0
   vertex -0.6 0.5 0
   vertex 0.6 0.5 0
  endloop
 endfacet
endsolid ASCII
