solid zone0
 facet normal 0 -0 1
  outer loop
   vertex 3.7601 0.5301 1.344
   vertex 3.7601 0.9301 1.344
   vertex 3.1601 0.5301 1.344
  endloop
 endfacet
 facet normal 0 0 1
  outer loop
   vertex 3.1601 0.5301 1.344
   vertex 3.7601 0.9301 1.344
   vertex 3.1601 0.9301 1.344
  endloop
 endfacet
 facet normal -1 0 0
  outer loop
   vertex 3.1601 0.9301 0.944
   vertex 3.1601 0.5301 0.944
   vertex 3.1601 0.9301 1.344
  endloop
 endfacet
 facet normal -1 -0 0
  outer loop
   vertex 3.1601 0.9301 1.344
   vertex 3.1601 0.5301 0.944
   vertex 3.1601 0.5301 1.344
  endloop
 endfacet
 facet normal 0 1 -0
  outer loop
   vertex 3.7601 0.9301 0.944
   vertex 3.1601 0.9301 0.944
   vertex 3.7601 0.9301 1.344
  endloop
 endfacet
 facet normal 0 1 0
  outer loop
   vertex 3.7601 0.9301 1.344
   vertex 3.1601 0.9301 0.944
   vertex 3.1601 0.9301 1.344
  endloop
 endfacet
 facet normal -0 -0 -1
  outer loop
   vertex 3.7601 0.9301 0.944
   vertex 3.7601 0.5301 0.944
   vertex 3.1601 0.9301 0.944
  endloop
 endfacet
 facet normal 0 0 -1
  outer loop
   vertex 3.1601 0.9301 0.944
   vertex 3.7601 0.5301 0.944
   vertex 3.1601 0.5301 0.944
  endloop
 endfacet
 facet normal 0 -1 0
  outer loop
   vertex 3.1601 0.5301 0.944
   vertex 3.7601 0.5301 0.944
   vertex 3.1601 0.5301 1.344
  endloop
 endfacet
 facet normal 0 -1 0
  outer loop
   vertex 3.1601 0.5301 1.344
   vertex 3.7601 0.5301 0.944
   vertex 3.7601 0.5301 1.344
  endloop
 endfacet
 facet normal 1 0 0
  outer loop
   vertex 3.7601 0.5301 0.944
   vertex 3.7601 0.9301 0.944
   vertex 3.7601 0.5301 1.344
  endloop
 endfacet
 facet normal 1 -0 0
  outer loop
   vertex 3.7601 0.5301 1.344
   vertex 3.7601 0.9301 0.944
   vertex 3.7601 0.9301 1.344
  endloop
 endfacet
 facet normal 0 -0 1
  outer loop
   vertex 4.3601 0.5301 0.544
   vertex 4.3601 0.9301 0.544
   vertex 3.7601 0.5301 0.544
  endloop
 endfacet
 facet normal 0 0 1
  outer loop
   vertex 3.7601 0.5301 0.544
   vertex 4.3601 0.9301 0.544
   vertex 3.7601 0.9301 0.544
  endloop
 endfacet
 facet normal -1 -0 0
  outer loop
   vertex 3.7601 0.9301 0.144
   vertex 3.7601 0.5301 0.144
   vertex 3.7601 0.9301 0.544
  endloop
 endfacet
 facet normal -1 -0 0
  outer loop
   vertex 3.7601 0.9301 0.544
   vertex 3.7601 0.5301 0.144
   vertex 3.7601 0.5301 0.544
  endloop
 endfacet
 facet normal 0 1 -0
  outer loop
   vertex 4.3601 0.9301 0.144
   vertex 3.7601 0.9301 0.144
   vertex 4.3601 0.9301 0.544
  endloop
 endfacet
 facet normal 0 1 0
  outer loop
   vertex 4.3601 0.9301 0.544
   vertex 3.7601 0.9301 0.144
   vertex 3.7601 0.9301 0.544
  endloop
 endfacet
 facet normal -0 -0 -1
  outer loop
   vertex 4.3601 0.9301 0.144
   vertex 4.3601 0.5301 0.144
   vertex 3.7601 0.9301 0.144
  endloop
 endfacet
 facet normal 4.62593e-17 6.93889e-17 -1
  outer loop
   vertex 3.7601 0.9301 0.144
   vertex 4.3601 0.5301 0.144
   vertex 3.7601 0.5301 0.144
  endloop
 endfacet
 facet normal 0 -1 0
  outer loop
   vertex 3.7601 0.5301 0.144
   vertex 4.3601 0.5301 0.144
   vertex 3.7601 0.5301 0.544
  endloop
 endfacet
 facet normal 0 -1 0
  outer loop
   vertex 3.7601 0.5301 0.544
   vertex 4.3601 0.5301 0.144
   vertex 4.3601 0.5301 0.544
  endloop
 endfacet
 facet normal 1 0 0
  outer loop
   vertex 4.3601 0.5301 0.144
   vertex 4.3601 0.9301 0.144
   vertex 4.3601 0.5301 0.544
  endloop
 endfacet
 facet normal 1 -0 0
  outer loop
   vertex 4.3601 0.5301 0.544
   vertex 4.3601 0.9301 0.144
   vertex 4.3601 0.9301 0.544
  endloop
 endfacet
 facet normal 0 -0 1
  outer loop
   vertex 4.3601 0.1301 0.544
   vertex 4.3601 0.5301 0.544
   vertex 3.7601 0.1301 0.544
  endloop
 endfacet
 facet normal 0 0 1
  outer loop
   vertex 3.7601 0.1301 0.544
   vertex 4.3601 0.5301 0.544
   vertex 3.7601 0.5301 0.544
  endloop
 endfacet
 facet normal -1 0 0
  outer loop
   vertex 3.7601 0.5301 0.144
   vertex 3.7601 0.1301 0.144
   vertex 3.7601 0.5301 0.544
  endloop
 endfacet
 facet normal -1 -0 0
  outer loop
   vertex 3.7601 0.5301 0.544
   vertex 3.7601 0.1301 0.144
   vertex 3.7601 0.1301 0.544
  endloop
 endfacet
 facet normal 0 1 -0
  outer loop
   vertex 4.3601 0.5301 0.144
   vertex 3.7601 0.5301 0.144
   vertex 4.3601 0.5301 0.544
  endloop
 endfacet
 facet normal 0 1 0
  outer loop
   vertex 4.3601 0.5301 0.544
   vertex 3.7601 0.5301 0.144
   vertex 3.7601 0.5301 0.544
  endloop
 endfacet
 facet normal 4.62593e-17 6.93889e-17 -1
  outer loop
   vertex 4.3601 0.5301 0.144
   vertex 4.3601 0.1301 0.144
   vertex 3.7601 0.5301 0.144
  endloop
 endfacet
 facet normal 0 0 -1
  outer loop
   vertex 3.7601 0.5301 0.144
   vertex 4.3601 0.1301 0.144
   vertex 3.7601 0.1301 0.144
  endloop
 endfacet
 facet normal 0 -1 0
  outer loop
   vertex 3.7601 0.1301 0.144
   vertex 4.3601 0.1301 0.144
   vertex 3.7601 0.1301 0.544
  endloop
 endfacet
 facet normal 0 -1 0
  outer loop
   vertex 3.7601 0.1301 0.544
   vertex 4.3601 0.1301 0.144
   vertex 4.3601 0.1301 0.544
  endloop
 endfacet
 facet normal 1 0 0
  outer loop
   vertex 4.3601 0.1301 0.144
   vertex 4.3601 0.5301 0.144
   vertex 4.3601 0.1301 0.544
  endloop
 endfacet
 facet normal 1 -0 0
  outer loop
   vertex 4.3601 0.1301 0.544
   vertex 4.3601 0.5301 0.144
   vertex 4.3601 0.5301 0.544
  endloop
 endfacet
 facet normal 0 -0 1
  outer loop
   vertex 3.7601 0.1301 0.544
   vertex 3.7601 0.5301 0.544
   vertex 3.1601 0.1301 0.544
  endloop
 endfacet
 facet normal 0 0 1
  outer loop
   vertex 3.1601 0.1301 0.544
   vertex 3.7601 0.5301 0.544
   vertex 3.1601 0.5301 0.544
  endloop
 endfacet
 facet normal -1 0 0
  outer loop
   vertex 3.1601 0.5301 0.144
   vertex 3.1601 0.1301 0.144
   vertex 3.1601 0.5301 0.544
  endloop
 endfacet
 facet normal -1 -0 0
  outer loop
   vertex 3.1601 0.5301 0.544
   vertex 3.1601 0.1301 0.144
   vertex 3.1601 0.1301 0.544
  endloop
 endfacet
 facet normal 0 1 -0
  outer loop
   vertex 3.7601 0.5301 0.144
   vertex 3.1601 0.5301 0.144
   vertex 3.7601 0.5301 0.544
  endloop
 endfacet
 facet normal 0 1 0
  outer loop
   vertex 3.7601 0.5301 0.544
   vertex 3.1601 0.5301 0.144
   vertex 3.1601 0.5301 0.544
  endloop
 endfacet
 facet normal -4.62593e-17 -0 -1
  outer loop
   vertex 3.7601 0.5301 0.144
   vertex 3.7601 0.1301 0.144
   vertex 3.1601 0.5301 0.144
  endloop
 endfacet
 facet normal -4.62593e-17 -0 -1
  outer loop
   vertex 3.1601 0.5301 0.144
   vertex 3.7601 0.1301 0.144
   vertex 3.1601 0.1301 0.144
  endloop
 endfacet
 facet normal 0 -1 0
  outer loop
   vertex 3.1601 0.1301 0.144
   vertex 3.7601 0.1301 0.144
   vertex 3.1601 0.1301 0.544
  endloop
 endfacet
 facet normal 0 -1 0
  outer loop
   vertex 3.1601 0.1301 0.544
   vertex 3.7601 0.1301 0.144
   vertex 3.7601 0.1301 0.544
  endloop
 endfacet
 facet normal 1 0 0
  outer loop
   vertex 3.7601 0.1301 0.144
   vertex 3.7601 0.5301 0.144
   vertex 3.7601 0.1301 0.544
  endloop
 endfacet
 facet normal 1 -0 0
  outer loop
   vertex 3.7601 0.1301 0.544
   vertex 3.7601 0.5301 0.144
   vertex 3.7601 0.5301 0.544
  endloop
 endfacet
 facet normal 0 -0 1
  outer loop
   vertex 3.7601 0.5301 0.544
   vertex 3.7601 0.9301 0.544
   vertex 3.1601 0.5301 0.544
  endloop
 endfacet
 facet normal 0 0 1
  outer loop
   vertex 3.1601 0.5301 0.544
   vertex 3.7601 0.9301 0.544
   vertex 3.1601 0.9301 0.544
  endloop
 endfacet
 facet normal -1 -0 0
  outer loop
   vertex 3.1601 0.9301 0.144
   vertex 3.1601 0.5301 0.144
   vertex 3.1601 0.9301 0.544
  endloop
 endfacet
 facet normal -1 -0 0
  outer loop
   vertex 3.1601 0.9301 0.544
   vertex 3.1601 0.5301 0.144
   vertex 3.1601 0.5301 0.544
  endloop
 endfacet
 facet normal 0 1 -0
  outer loop
   vertex 3.7601 0.9301 0.144
   vertex 3.1601 0.9301 0.144
   vertex 3.7601 0.9301 0.544
  endloop
 endfacet
 facet normal 0 1 0
  outer loop
   vertex 3.7601 0.9301 0.544
   vertex 3.1601 0.9301 0.144
   vertex 3.1601 0.9301 0.544
  endloop
 endfacet
 facet normal -4.62593e-17 6.93889e-17 -1
  outer loop
   vertex 3.7601 0.9301 0.144
   vertex 3.7601 0.5301 0.144
   vertex 3.1601 0.9301 0.144
  endloop
 endfacet
 facet normal -4.62593e-17 6.93889e-17 -1
  outer loop
   vertex 3.1601 0.9301 0.144
   vertex 3.7601 0.5301 0.144
   vertex 3.1601 0.5301 0.144
  endloop
 endfacet
 facet normal 0 -1 0
  outer loop
   vertex 3.1601 0.5301 0.144
   vertex 3.7601 0.5301 0.144
   vertex 3.1601 0.5301 0.544
  endloop
 endfacet
 facet normal 0 -1 0
  outer loop
   vertex 3.1601 0.5301 0.544
   vertex 3.7601 0.5301 0.144
   vertex 3.7601 0.5301 0.544
  endloop
 endfacet
 facet normal 1 0 0
  outer loop
   vertex 3.7601 0.5301 0.144
   vertex 3.7601 0.9301 0.144
   vertex 3.7601 0.5301 0.544
  endloop
 endfacet
 facet normal 1 -0 0
  outer loop
   vertex 3.7601 0.5301 0.544
   vertex 3.7601 0.9301 0.144
   vertex 3.7601 0.9301 0.544
  endloop
 endfacet
 facet normal 0 -0 1
  outer loop
   vertex 3.7601 0.5301 0.944
   vertex 3.7601 0.9301 0.944
   vertex 3.1601 0.5301 0.944
  endloop
 endfacet
 facet normal 0 0 1
  outer loop
   vertex 3.1601 0.5301 0.944
   vertex 3.7601 0.9301 0.944
   vertex 3.1601 0.9301 0.944
  endloop
 endfacet
 facet normal -1 0 0
  outer loop
   vertex 3.1601 0.9301 0.544
   vertex 3.1601 0.5301 0.544
   vertex 3.1601 0.9301 0.944
  endloop
 endfacet
 facet normal -1 -0 0
  outer loop
   vertex 3.1601 0.9301 0.944
   vertex 3.1601 0.5301 0.544
   vertex 3.1601 0.5301 0.944
  endloop
 endfacet
 facet normal 0 1 -0
  outer loop
   vertex 3.7601 0.9301 0.544
   vertex 3.1601 0.9301 0.544
   vertex 3.7601 0.9301 0.944
  endloop
 endfacet
 facet normal 0 1 0
  outer loop
   vertex 3.7601 0.9301 0.944
   vertex 3.1601 0.9301 0.544
   vertex 3.1601 0.9301 0.944
  endloop
 endfacet
 facet normal -0 -0 -1
  outer loop
   vertex 3.7601 0.9301 0.544
   vertex 3.7601 0.5301 0.544
   vertex 3.1601 0.9301 0.544
  endloop
 endfacet
 facet normal 0 0 -1
  outer loop
   vertex 3.1601 0.9301 0.544
   vertex 3.7601 0.5301 0.544
   vertex 3.1601 0.5301 0.544
  endloop
 endfacet
 facet normal 0 -1 0
  outer loop
   vertex 3.1601 0.5301 0.544
   vertex 3.7601 0.5301 0.544
   vertex 3.1601 0.5301 0.944
  endloop
 endfacet
 facet normal 0 -1 0
  outer loop
   vertex 3.1601 0.5301 0.944
   vertex 3.7601 0.5301 0.544
   vertex 3.7601 0.5301 0.944
  endloop
 endfacet
 facet normal 1 0 0
  outer loop
   vertex 3.7601 0.5301 0.544
   vertex 3.7601 0.9301 0.544
   vertex 3.7601 0.5301 0.944
  endloop
 endfacet
 facet normal 1 -0 0
  outer loop
   vertex 3.7601 0.5301 0.944
   vertex 3.7601 0.9301 0.544
   vertex 3.7601 0.9301 0.944
  endloop
 endfacet
 facet normal 0 -0 1
  outer loop
   vertex 4.3601 0.5301 0.944
   vertex 4.3601 0.9301 0.944
   vertex 3.7601 0.5301 0.944
  endloop
 endfacet
 facet normal 0 0 1
  outer loop
   vertex 3.7601 0.5301 0.944
   vertex 4.3601 0.9301 0.944
   vertex 3.7601 0.9301 0.944
  endloop
 endfacet
 facet normal -1 0 0
  outer loop
   vertex 3.7601 0.9301 0.544
   vertex 3.7601 0.5301 0.544
   vertex 3.7601 0.9301 0.944
  endloop
 endfacet
 facet normal -1 -0 0
  outer loop
   vertex 3.7601 0.9301 0.944
   vertex 3.7601 0.5301 0.544
   vertex 3.7601 0.5301 0.944
  endloop
 endfacet
 facet normal 0 1 -0
  outer loop
   vertex 4.3601 0.9301 0.544
   vertex 3.7601 0.9301 0.544
   vertex 4.3601 0.9301 0.944
  endloop
 endfacet
 facet normal 0 1 0
  outer loop
   vertex 4.3601 0.9301 0.944
   vertex 3.7601 0.9301 0.544
   vertex 3.7601 0.9301 0.944
  endloop
 endfacet
 facet normal -0 -0 -1
  outer loop
   vertex 4.3601 0.9301 0.544
   vertex 4.3601 0.5301 0.544
   vertex 3.7601 0.9301 0.544
  endloop
 endfacet
 facet normal 0 0 -1
  outer loop
   vertex 3.7601 0.9301 0.544
   vertex 4.3601 0.5301 0.544
   vertex 3.7601 0.5301 0.544
  endloop
 endfacet
 facet normal 0 -1 0
  outer loop
   vertex 3.7601 0.5301 0.544
   vertex 4.3601 0.5301 0.544
   vertex 3.7601 0.5301 0.944
  endloop
 endfacet
 facet normal 0 -1 0
  outer loop
   vertex 3.7601 0.5301 0.944
   vertex 4.3601 0.5301 0.544
   vertex 4.3601 0.5301 0.944
  endloop
 endfacet
 facet normal 1 0 0
  outer loop
   vertex 4.3601 0.5301 0.544
   vertex 4.3601 0.9301 0.544
   vertex 4.3601 0.5301 0.944
  endloop
 endfacet
 facet normal 1 -0 0
  outer loop
   vertex 4.3601 0.5301 0.944
   vertex 4.3601 0.9301 0.544
   vertex 4.3601 0.9301 0.944
  endloop
 endfacet
 facet normal 0 -0 1
  outer loop
   vertex 4.3601 0.1301 0.944
   vertex 4.3601 0.5301 0.944
   vertex 3.7601 0.1301 0.944
  endloop
 endfacet
 facet normal 0 0 1
  outer loop
   vertex 3.7601 0.1301 0.944
   vertex 4.3601 0.5301 0.944
   vertex 3.7601 0.5301 0.944
  endloop
 endfacet
 facet normal -1 0 0
  outer loop
   vertex 3.7601 0.5301 0.544
   vertex 3.7601 0.1301 0.544
   vertex 3.7601 0.5301 0.944
  endloop
 endfacet
 facet normal -1 -0 0
  outer loop
   vertex 3.7601 0.5301 0.944
   vertex 3.7601 0.1301 0.544
   vertex 3.7601 0.1301 0.944
  endloop
 endfacet
 facet normal 0 1 -0
  outer loop
   vertex 4.3601 0.5301 0.544
   vertex 3.7601 0.5301 0.544
   vertex 4.3601 0.5301 0.944
  endloop
 endfacet
 facet normal 0 1 0
  outer loop
   vertex 4.3601 0.5301 0.944
   vertex 3.7601 0.5301 0.544
   vertex 3.7601 0.5301 0.944
  endloop
 endfacet
 facet normal -0 -0 -1
  outer loop
   vertex 4.3601 0.5301 0.544
   vertex 4.3601 0.1301 0.544
   vertex 3.7601 0.5301 0.544
  endloop
 endfacet
 facet normal 0 0 -1
  outer loop
   vertex 3.7601 0.5301 0.544
   vertex 4.3601 0.1301 0.544
   vertex 3.7601 0.1301 0.544
  endloop
 endfacet
 facet normal 0 -1 0
  outer loop
   vertex 3.7601 0.1301 0.544
   vertex 4.3601 0.1301 0.544
   vertex 3.7601 0.1301 0.944
  endloop
 endfacet
 facet normal 0 -1 0
  outer loop
   vertex 3.7601 0.1301 0.944
   vertex 4.3601 0.1301 0.544
   vertex 4.3601 0.1301 0.944
  endloop
 endfacet
 facet normal 1 0 0
  outer loop
   vertex 4.3601 0.1301 0.544
   vertex 4.3601 0.5301 0.544
   vertex 4.3601 0.1301 0.944
  endloop
 endfacet
 facet normal 1 -0 0
  outer loop
   vertex 4.3601 0.1301 0.944
   vertex 4.3601 0.5301 0.544
   vertex 4.3601 0.5301 0.944
  endloop
 endfacet
 facet normal 0 -0 1
  outer loop
   vertex 3.7601 0.1301 0.944
   vertex 3.7601 0.5301 0.944
   vertex 3.1601 0.1301 0.944
  endloop
 endfacet
 facet normal 0 0 1
  outer loop
   vertex 3.1601 0.1301 0.944
   vertex 3.7601 0.5301 0.944
   vertex 3.1601 0.5301 0.944
  endloop
 endfacet
 facet normal -1 0 0
  outer loop
   vertex 3.1601 0.5301 0.544
   vertex 3.1601 0.1301 0.544
   vertex 3.1601 0.5301 0.944
  endloop
 endfacet
 facet normal -1 -0 0
  outer loop
   vertex 3.1601 0.5301 0.944
   vertex 3.1601 0.1301 0.544
   vertex 3.1601 0.1301 0.944
  endloop
 endfacet
 facet normal 0 1 -0
  outer loop
   vertex 3.7601 0.5301 0.544
   vertex 3.1601 0.5301 0.544
   vertex 3.7601 0.5301 0.944
  endloop
 endfacet
 facet normal 0 1 0
  outer loop
   vertex 3.7601 0.5301 0.944
   vertex 3.1601 0.5301 0.544
   vertex 3.1601 0.5301 0.944
  endloop
 endfacet
 facet normal -0 -0 -1
  outer loop
   vertex 3.7601 0.5301 0.544
   vertex 3.7601 0.1301 0.544
   vertex 3.1601 0.5301 0.544
  endloop
 endfacet
 facet normal 0 0 -1
  outer loop
   vertex 3.1601 0.5301 0.544
   vertex 3.7601 0.1301 0.544
   vertex 3.1601 0.1301 0.544
  endloop
 endfacet
 facet normal 0 -1 0
  outer loop
   vertex 3.1601 0.1301 0.544
   vertex 3.7601 0.1301 0.544
   vertex 3.1601 0.1301 0.944
  endloop
 endfacet
 facet normal 0 -1 0
  outer loop
   vertex 3.1601 0.1301 0.944
   vertex 3.7601 0.1301 0.544
   vertex 3.7601 0.1301 0.944
  endloop
 endfacet
 facet normal 1 0 0
  outer loop
   vertex 3.7601 0.1301 0.544
   vertex 3.7601 0.5301 0.544
   vertex 3.7601 0.1301 0.944
  endloop
 endfacet
 facet normal 1 -0 0
  outer loop
   vertex 3.7601 0.1301 0.944
   vertex 3.7601 0.5301 0.544
   vertex 3.7601 0.5301 0.944
  endloop
 endfacet
 facet normal 0 -0 1
  outer loop
   vertex 3.7601 0.1301 1.344
   vertex 3.7601 0.5301 1.344
   vertex 3.1601 0.1301 1.344
  endloop
 endfacet
 facet normal 0 0 1
  outer loop
   vertex 3.1601 0.1301 1.344
   vertex 3.7601 0.5301 1.344
   vertex 3.1601 0.5301 1.344
  endloop
 endfacet
 facet normal -1 0 0
  outer loop
   vertex 3.1601 0.5301 0.944
   vertex 3.1601 0.1301 0.944
   vertex 3.1601 0.5301 1.344
  endloop
 endfacet
 facet normal -1 -0 0
  outer loop
   vertex 3.1601 0.5301 1.344
   vertex 3.1601 0.1301 0.944
   vertex 3.1601 0.1301 1.344
  endloop
 endfacet
 facet normal 0 1 -0
  outer loop
   vertex 3.7601 0.5301 0.944
   vertex 3.1601 0.5301 0.944
   vertex 3.7601 0.5301 1.344
  endloop
 endfacet
 facet normal 0 1 0
  outer loop
   vertex 3.7601 0.5301 1.344
   vertex 3.1601 0.5301 0.944
   vertex 3.1601 0.5301 1.344
  endloop
 endfacet
 facet normal -0 -0 -1
  outer loop
   vertex 3.7601 0.5301 0.944
   vertex 3.7601 0.1301 0.944
   vertex 3.1601 0.5301 0.944
  endloop
 endfacet
 facet normal 0 0 -1
  outer loop
   vertex 3.1601 0.5301 0.944
   vertex 3.7601 0.1301 0.944
   vertex 3.1601 0.1301 0.944
  endloop
 endfacet
 facet normal 0 -1 0
  outer loop
   vertex 3.1601 0.1301 0.944
   vertex 3.7601 0.1301 0.944
   vertex 3.1601 0.1301 1.344
  endloop
 endfacet
 facet normal 0 -1 0
  outer loop
   vertex 3.1601 0.1301 1.344
   vertex 3.7601 0.1301 0.944
   vertex 3.7601 0.1301 1.344
  endloop
 endfacet
 facet normal 1 0 0
  outer loop
   vertex 3.7601 0.1301 0.944
   vertex 3.7601 0.5301 0.944
   vertex 3.7601 0.1301 1.344
  endloop
 endfacet
 facet normal 1 -0 0
  outer loop
   vertex 3.7601 0.1301 1.344
   vertex 3.7601 0.5301 0.944
   vertex 3.7601 0.5301 1.344
  endloop
 endfacet
 facet normal 0 -0 1
  outer loop
   vertex 4.3601 0.1301 1.344
   vertex 4.3601 0.5301 1.344
   vertex 3.7601 0.1301 1.344
  endloop
 endfacet
 facet normal 0 0 1
  outer loop
   vertex 3.7601 0.1301 1.344
   vertex 4.3601 0.5301 1.344
   vertex 3.7601 0.5301 1.344
  endloop
 endfacet
 facet normal -1 0 0
  outer loop
   vertex 3.7601 0.5301 0.944
   vertex 3.7601 0.1301 0.944
   vertex 3.7601 0.5301 1.344
  endloop
 endfacet
 facet normal -1 -0 0
  outer loop
   vertex 3.7601 0.5301 1.344
   vertex 3.7601 0.1301 0.944
   vertex 3.7601 0.1301 1.344
  endloop
 endfacet
 facet normal 0 1 -0
  outer loop
   vertex 4.3601 0.5301 0.944
   vertex 3.7601 0.5301 0.944
   vertex 4.3601 0.5301 1.344
  endloop
 endfacet
 facet normal 0 1 0
  outer loop
   vertex 4.3601 0.5301 1.344
   vertex 3.7601 0.5301 0.944
   vertex 3.7601 0.5301 1.344
  endloop
 endfacet
 facet normal -0 -0 -1
  outer loop
   vertex 4.3601 0.5301 0.944
   vertex 4.3601 0.1301 0.944
   vertex 3.7601 0.5301 0.944
  endloop
 endfacet
 facet normal 0 0 -1
  outer loop
   vertex 3.7601 0.5301 0.944
   vertex 4.3601 0.1301 0.944
   vertex 3.7601 0.1301 0.944
  endloop
 endfacet
 facet normal 0 -1 0
  outer loop
   vertex 3.7601 0.1301 0.944
   vertex 4.3601 0.1301 0.944
   vertex 3.7601 0.1301 1.344
  endloop
 endfacet
 facet normal 0 -1 0
  outer loop
   vertex 3.7601 0.1301 1.344
   vertex 4.3601 0.1301 0.944
   vertex 4.3601 0.1301 1.344
  endloop
 endfacet
 facet normal 1 0 0
  outer loop
   vertex 4.3601 0.1301 0.944
   vertex 4.3601 0.5301 0.944
   vertex 4.3601 0.1301 1.344
  endloop
 endfacet
 facet normal 1 -0 0
  outer loop
   vertex 4.3601 0.1301 1.344
   vertex 4.3601 0.5301 0.944
   vertex 4.3601 0.5301 1.344
  endloop
 endfacet
 facet normal 0 -0 1
  outer loop
   vertex 4.3601 0.5301 1.344
   vertex 4.3601 0.9301 1.344
   vertex 3.7601 0.5301 1.344
  endloop
 endfacet
 facet normal 0 0 1
  outer loop
   vertex 3.7601 0.5301 1.344
   vertex 4.3601 0.9301 1.344
   vertex 3.7601 0.9301 1.344
  endloop
 endfacet
 facet normal -1 0 0
  outer loop
   vertex 3.7601 0.9301 0.944
   vertex 3.7601 0.5301 0.944
   vertex 3.7601 0.9301 1.344
  endloop
 endfacet
 facet normal -1 -0 0
  outer loop
   vertex 3.7601 0.9301 1.344
   vertex 3.7601 0.5301 0.944
   vertex 3.7601 0.5301 1.344
  endloop
 endfacet
 facet normal 0 1 -0
  outer loop
   vertex 4.3601 0.9301 0.944
   vertex 3.7601 0.9301 0.944
   vertex 4.3601 0.9301 1.344
  endloop
 endfacet
 facet normal 0 1 0
  outer loop
   vertex 4.3601 0.9301 1.344
   vertex 3.7601 0.9301 0.944
   vertex 3.7601 0.9301 1.344
  endloop
 endfacet
 facet normal -0 -0 -1
  outer loop
   vertex 4.3601 0.9301 0.944
   vertex 4.3601 0.5301 0.944
   vertex 3.7601 0.9301 0.944
  endloop
 endfacet
 facet normal 0 0 -1
  outer loop
   vertex 3.7601 0.9301 0.944
   vertex 4.3601 0.5301 0.944
   vertex 3.7601 0.5301 0.944
  endloop
 endfacet
 facet normal 0 -1 0
  outer loop
   vertex 3.7601 0.5301 0.944
   vertex 4.3601 0.5301 0.944
   vertex 3.7601 0.5301 1.344
  endloop
 endfacet
 facet normal 0 -1 0
  outer loop
   vertex 3.7601 0.5301 1.344
   vertex 4.3601 0.5301 0.944
   vertex 4.3601 0.5301 1.344
  endloop
 endfacet
 facet normal 1 0 0
  outer loop
   vertex 4.3601 0.5301 0.944
   vertex 4.3601 0.9301 0.944
   vertex 4.3601 0.5301 1.344
  endloop
 endfacet
 facet normal 1 -0 0
  outer loop
   vertex 4.3601 0.5301 1.344
   vertex 4.3601 0.9301 0.944
   vertex 4.3601 0.9301 1.344
  endloop
 endfacet
endsolid zone0
