solid zone0
 facet normal 0 -0 1
  outer loop
   vertex 1 -0.4 0.944
   vertex 1 0 0.944
   vertex 0.4 -0.4 0.944
  endloop
 endfacet
 facet normal 0 0 1
  outer loop
   vertex 0.4 -0.4 0.944
   vertex 1 0 0.944
   vertex 0.4 0 0.944
  endloop
 endfacet
 facet normal -1 0 0
  outer loop
   vertex 0.4 0 0.544
   vertex 0.4 -0.4 0.544
   vertex 0.4 0 0.944
  endloop
 endfacet
 facet normal -1 -0 0
  outer loop
   vertex 0.4 0 0.944
   vertex 0.4 -0.4 0.544
   vertex 0.4 -0.4 0.944
  endloop
 endfacet
 facet normal 0 1 -0
  outer loop
   vertex 1 0 0.544
   vertex 0.4 0 0.544
   vertex 1 0 0.944
  endloop
 endfacet
 facet normal 0 1 0
  outer loop
   vertex 1 0 0.944
   vertex 0.4 0 0.544
   vertex 0.4 0 0.944
  endloop
 endfacet
 facet normal -0 -0 -1
  outer loop
   vertex 1 0 0.544
   vertex 1 -0.4 0.544
   vertex 0.4 0 0.544
  endloop
 endfacet
 facet normal 0 0 -1
  outer loop
   vertex 0.4 0 0.544
   vertex 1 -0.4 0.544
   vertex 0.4 -0.4 0.544
  endloop
 endfacet
 facet normal 0 -1 0
  outer loop
   vertex 0.4 -0.4 0.544
   vertex 1 -0.4 0.544
   vertex 0.4 -0.4 0.944
  endloop
 endfacet
 facet normal 0 -1 0
  outer loop
   vertex 0.4 -0.4 0.944
   vertex 1 -0.4 0.544
   vertex 1 -0.4 0.944
  endloop
 endfacet
 facet normal 1 0 0
  outer loop
   vertex 1 -0.4 0.544
   vertex 1 0 0.544
   vertex 1 -0.4 0.944
  endloop
 endfacet
 facet normal 1 -0 0
  outer loop
   vertex 1 -0.4 0.944
   vertex 1 0 0.544
   vertex 1 0 0.944
  endloop
 endfacet
 facet normal 0 -0 1
  outer loop
   vertex 1.6 0 0.544
   vertex 1.6 0.4 0.544
   vertex 1 0 0.544
  endloop
 endfacet
 facet normal 0 0 1
  outer loop
   vertex 1 0 0.544
   vertex 1.6 0.4 0.544
   vertex 1 0.4 0.544
  endloop
 endfacet
 facet normal -1 -0 0
  outer loop
   vertex 1 0.4 0.144
   vertex 1 0 0.144
   vertex 1 0.4 0.544
  endloop
 endfacet
 facet normal -1 -0 0
  outer loop
   vertex 1 0.4 0.544
   vertex 1 0 0.144
   vertex 1 0 0.544
  endloop
 endfacet
 facet normal 0 1 -0
  outer loop
   vertex 1.6 0.4 0.144
   vertex 1 0.4 0.144
   vertex 1.6 0.4 0.544
  endloop
 endfacet
 facet normal 0 1 0
  outer loop
   vertex 1.6 0.4 0.544
   vertex 1 0.4 0.144
   vertex 1 0.4 0.544
  endloop
 endfacet
 facet normal -0 -0 -1
  outer loop
   vertex 1.6 0.4 0.144
   vertex 1.6 0 0.144
   vertex 1 0.4 0.144
  endloop
 endfacet
 facet normal 4.62593e-17 6.93889e-17 -1
  outer loop
   vertex 1 0.4 0.144
   vertex 1.6 0 0.144
   vertex 1 0 0.144
  endloop
 endfacet
 facet normal 0 -1 0
  outer loop
   vertex 1 0 0.144
   vertex 1.6 0 0.144
   vertex 1 0 0.544
  endloop
 endfacet
 facet normal 0 -1 0
  outer loop
   vertex 1 0 0.544
   vertex 1.6 0 0.144
   vertex 1.6 0 0.544
  endloop
 endfacet
 facet normal 1 0 0
  outer loop
   vertex 1.6 0 0.144
   vertex 1.6 0.4 0.144
   vertex 1.6 0 0.544
  endloop
 endfacet
 facet normal 1 -0 0
  outer loop
   vertex 1.6 0 0.544
   vertex 1.6 0.4 0.144
   vertex 1.6 0.4 0.544
  endloop
 endfacet
 facet normal 0 -0 1
  outer loop
   vertex 1.6 -0.4 0.544
   vertex 1.6 0 0.544
   vertex 1 -0.4 0.544
  endloop
 endfacet
 facet normal 0 0 1
  outer loop
   vertex 1 -0.4 0.544
   vertex 1.6 0 0.544
   vertex 1 0 0.544
  endloop
 endfacet
 facet normal -1 0 0
  outer loop
   vertex 1 0 0.144
   vertex 1 -0.4 0.144
   vertex 1 0 0.544
  endloop
 endfacet
 facet normal -1 -0 0
  outer loop
   vertex 1 0 0.544
   vertex 1 -0.4 0.144
   vertex 1 -0.4 0.544
  endloop
 endfacet
 facet normal 0 1 -0
  outer loop
   vertex 1.6 0 0.144
   vertex 1 0 0.144
   vertex 1.6 0 0.544
  endloop
 endfacet
 facet normal 0 1 0
  outer loop
   vertex 1.6 0 0.544
   vertex 1 0 0.144
   vertex 1 0 0.544
  endloop
 endfacet
 facet normal 4.62593e-17 6.93889e-17 -1
  outer loop
   vertex 1.6 0 0.144
   vertex 1.6 -0.4 0.144
   vertex 1 0 0.144
  endloop
 endfacet
 facet normal 0 0 -1
  outer loop
   vertex 1 0 0.144
   vertex 1.6 -0.4 0.144
   vertex 1 -0.4 0.144
  endloop
 endfacet
 facet normal 0 -1 0
  outer loop
   vertex 1 -0.4 0.144
   vertex 1.6 -0.4 0.144
   vertex 1 -0.4 0.544
  endloop
 endfacet
 facet normal 0 -1 0
  outer loop
   vertex 1 -0.4 0.544
   vertex 1.6 -0.4 0.144
   vertex 1.6 -0.4 0.544
  endloop
 endfacet
 facet normal 1 0 0
  outer loop
   vertex 1.6 -0.4 0.144
   vertex 1.6 0 0.144
   vertex 1.6 -0.4 0.544
  endloop
 endfacet
 facet normal 1 -0 0
  outer loop
   vertex 1.6 -0.4 0.544
   vertex 1.6 0 0.144
   vertex 1.6 0 0.544
  endloop
 endfacet
 facet normal 0 -0 1
  outer loop
   vertex 1 -0.4 0.544
   vertex 1 0 0.544
   vertex 0.4 -0.4 0.544
  endloop
 endfacet
 facet normal 0 0 1
  outer loop
   vertex 0.4 -0.4 0.544
   vertex 1 0 0.544
   vertex 0.4 0 0.544
  endloop
 endfacet
 facet normal -1 0 0
  outer loop
   vertex 0.4 0 0.144
   vertex 0.4 -0.4 0.144
   vertex 0.4 0 0.544
  endloop
 endfacet
 facet normal -1 -0 0
  outer loop
   vertex 0.4 0 0.544
   vertex 0.4 -0.4 0.144
   vertex 0.4 -0.4 0.544
  endloop
 endfacet
 facet normal 0 1 -0
  outer loop
   vertex 1 0 0.144
   vertex 0.4 0 0.144
   vertex 1 0 0.544
  endloop
 endfacet
 facet normal 0 1 0
  outer loop
   vertex 1 0 0.544
   vertex 0.4 0 0.144
   vertex 0.4 0 0.544
  endloop
 endfacet
 facet normal -4.62593e-17 -0 -1
  outer loop
   vertex 1 0 0.144
   vertex 1 -0.4 0.144
   vertex 0.4 0 0.144
  endloop
 endfacet
 facet normal -4.62593e-17 -0 -1
  outer loop
   vertex 0.4 0 0.144
   vertex 1 -0.4 0.144
   vertex 0.4 -0.4 0.144
  endloop
 endfacet
 facet normal 0 -1 0
  outer loop
   vertex 0.4 -0.4 0.144
   vertex 1 -0.4 0.144
   vertex 0.4 -0.4 0.544
  endloop
 endfacet
 facet normal 0 -1 0
  outer loop
   vertex 0.4 -0.4 0.544
   vertex 1 -0.4 0.144
   vertex 1 -0.4 0.544
  endloop
 endfacet
 facet normal 1 0 0
  outer loop
   vertex 1 -0.4 0.144
   vertex 1 0 0.144
   vertex 1 -0.4 0.544
  endloop
 endfacet
 facet normal 1 -0 0
  outer loop
   vertex 1 -0.4 0.544
   vertex 1 0 0.144
   vertex 1 0 0.544
  endloop
 endfacet
 facet normal 0 -0 1
  outer loop
   vertex 1 0 0.544
   vertex 1 0.4 0.544
   vertex 0.4 0 0.544
  endloop
 endfacet
 facet normal 0 0 1
  outer loop
   vertex 0.4 0 0.544
   vertex 1 0.4 0.544
   vertex 0.4 0.4 0.544
  endloop
 endfacet
 facet normal -1 -0 0
  outer loop
   vertex 0.4 0.4 0.144
   vertex 0.4 0 0.144
   vertex 0.4 0.4 0.544
  endloop
 endfacet
 facet normal -1 -0 0
  outer loop
   vertex 0.4 0.4 0.544
   vertex 0.4 0 0.144
   vertex 0.4 0 0.544
  endloop
 endfacet
 facet normal 0 1 -0
  outer loop
   vertex 1 0.4 0.144
   vertex 0.4 0.4 0.144
   vertex 1 0.4 0.544
  endloop
 endfacet
 facet normal 0 1 0
  outer loop
   vertex 1 0.4 0.544
   vertex 0.4 0.4 0.144
   vertex 0.4 0.4 0.544
  endloop
 endfacet
 facet normal -4.62593e-17 6.93889e-17 -1
  outer loop
   vertex 1 0.4 0.144
   vertex 1 0 0.144
   vertex 0.4 0.4 0.144
  endloop
 endfacet
 facet normal -4.62593e-17 6.93889e-17 -1
  outer loop
   vertex 0.4 0.4 0.144
   vertex 1 0 0.144
   vertex 0.4 0 0.144
  endloop
 endfacet
 facet normal 0 -1 0
  outer loop
   vertex 0.4 0 0.144
   vertex 1 0 0.144
   vertex 0.4 0 0.544
  endloop
 endfacet
 facet normal 0 -1 0
  outer loop
   vertex 0.4 0 0.544
   vertex 1 0 0.144
   vertex 1 0 0.544
  endloop
 endfacet
 facet normal 1 0 0
  outer loop
   vertex 1 0 0.144
   vertex 1 0.4 0.144
   vertex 1 0 0.544
  endloop
 endfacet
 facet normal 1 -0 0
  outer loop
   vertex 1 0 0.544
   vertex 1 0.4 0.144
   vertex 1 0.4 0.544
  endloop
 endfacet
 facet normal 0 -0 1
  outer loop
   vertex 1 0 0.944
   vertex 1 0.4 0.944
   vertex 0.4 0 0.944
  endloop
 endfacet
 facet normal 0 0 1
  outer loop
   vertex 0.4 0 0.944
   vertex 1 0.4 0.944
   vertex 0.4 0.4 0.944
  endloop
 endfacet
 facet normal -1 0 0
  outer loop
   vertex 0.4 0.4 0.544
   vertex 0.4 0 0.544
   vertex 0.4 0.4 0.944
  endloop
 endfacet
 facet normal -1 -0 0
  outer loop
   vertex 0.4 0.4 0.944
   vertex 0.4 0 0.544
   vertex 0.4 0 0.944
  endloop
 endfacet
 facet normal 0 1 -0
  outer loop
   vertex 1 0.4 0.544
   vertex 0.4 0.4 0.544
   vertex 1 0.4 0.944
  endloop
 endfacet
 facet normal 0 1 0
  outer loop
   vertex 1 0.4 0.944
   vertex 0.4 0.4 0.544
   vertex 0.4 0.4 0.944
  endloop
 endfacet
 facet normal -0 -0 -1
  outer loop
   vertex 1 0.4 0.544
   vertex 1 0 0.544
   vertex 0.4 0.4 0.544
  endloop
 endfacet
 facet normal 0 0 -1
  outer loop
   vertex 0.4 0.4 0.544
   vertex 1 0 0.544
   vertex 0.4 0 0.544
  endloop
 endfacet
 facet normal 0 -1 0
  outer loop
   vertex 0.4 0 0.544
   vertex 1 0 0.544
   vertex 0.4 0 0.944
  endloop
 endfacet
 facet normal 0 -1 0
  outer loop
   vertex 0.4 0 0.944
   vertex 1 0 0.544
   vertex 1 0 0.944
  endloop
 endfacet
 facet normal 1 0 0
  outer loop
   vertex 1 0 0.544
   vertex 1 0.4 0.544
   vertex 1 0 0.944
  endloop
 endfacet
 facet normal 1 -0 0
  outer loop
   vertex 1 0 0.944
   vertex 1 0.4 0.544
   vertex 1 0.4 0.944
  endloop
 endfacet
 facet normal 0 -0 1
  outer loop
   vertex 1.6 0 0.944
   vertex 1.6 0.4 0.944
   vertex 1 0 0.944
  endloop
 endfacet
 facet normal 0 0 1
  outer loop
   vertex 1 0 0.944
   vertex 1.6 0.4 0.944
   vertex 1 0.4 0.944
  endloop
 endfacet
 facet normal -1 0 0
  outer loop
   vertex 1 0.4 0.544
   vertex 1 0 0.544
   vertex 1 0.4 0.944
  endloop
 endfacet
 facet normal -1 -0 0
  outer loop
   vertex 1 0.4 0.944
   vertex 1 0 0.544
   vertex 1 0 0.944
  endloop
 endfacet
 facet normal 0 1 -0
  outer loop
   vertex 1.6 0.4 0.544
   vertex 1 0.4 0.544
   vertex 1.6 0.4 0.944
  endloop
 endfacet
 facet normal 0 1 0
  outer loop
   vertex 1.6 0.4 0.944
   vertex 1 0.4 0.544
   vertex 1 0.4 0.944
  endloop
 endfacet
 facet normal -0 -0 -1
  outer loop
   vertex 1.6 0.4 0.544
   vertex 1.6 0 0.544
   vertex 1 0.4 0.544
  endloop
 endfacet
 facet normal 0 0 -1
  outer loop
   vertex 1 0.4 0.544
   vertex 1.6 0 0.544
   vertex 1 0 0.544
  endloop
 endfacet
 facet normal 0 -1 0
  outer loop
   vertex 1 0 0.544
   vertex 1.6 0 0.544
   vertex 1 0 0.944
  endloop
 endfacet
 facet normal 0 -1 0
  outer loop
   vertex 1 0 0.944
   vertex 1.6 0 0.544
   vertex 1.6 0 0.944
  endloop
 endfacet
 facet normal 1 0 0
  outer loop
   vertex 1.6 0 0.544
   vertex 1.6 0.4 0.544
   vertex 1.6 0 0.944
  endloop
 endfacet
 facet normal 1 -0 0
  outer loop
   vertex 1.6 0 0.944
   vertex 1.6 0.4 0.544
   vertex 1.6 0.4 0.944
  endloop
 endfacet
 facet normal 0 -0 1
  outer loop
   vertex 1.6 -0.4 0.944
   vertex 1.6 0 0.944
   vertex 1 -0.4 0.944
  endloop
 endfacet
 facet normal 0 0 1
  outer loop
   vertex 1 -0.4 0.944
   vertex 1.6 0 0.944
   vertex 1 0 0.944
  endloop
 endfacet
 facet normal -1 0 0
  outer loop
   vertex 1 0 0.544
   vertex 1 -0.4 0.544
   vertex 1 0 0.944
  endloop
 endfacet
 facet normal -1 -0 0
  outer loop
   vertex 1 0 0.944
   vertex 1 -0.4 0.544
   vertex 1 -0.4 0.944
  endloop
 endfacet
 facet normal 0 1 -0
  outer loop
   vertex 1.6 0 0.544
   vertex 1 0 0.544
   vertex 1.6 0 0.944
  endloop
 endfacet
 facet normal 0 1 0
  outer loop
   vertex 1.6 0 0.944
   vertex 1 0 0.544
   vertex 1 0 0.944
  endloop
 endfacet
 facet normal -0 -0 -1
  outer loop
   vertex 1.6 0 0.544
   vertex 1.6 -0.4 0.544
   vertex 1 0 0.544
  endloop
 endfacet
 facet normal 0 0 -1
  outer loop
   vertex 1 0 0.544
   vertex 1.6 -0.4 0.544
   vertex 1 -0.4 0.544
  endloop
 endfacet
 facet normal 0 -1 0
  outer loop
   vertex 1 -0.4 0.544
   vertex 1.6 -0.4 0.544
   vertex 1 -0.4 0.944
  endloop
 endfacet
 facet normal 0 -1 0
  outer loop
   vertex 1 -0.4 0.944
   vertex 1.6 -0.4 0.544
   vertex 1.6 -0.4 0.944
  endloop
 endfacet
 facet normal 1 0 0
  outer loop
   vertex 1.6 -0.4 0.544
   vertex 1.6 0 0.544
   vertex 1.6 -0.4 0.944
  endloop
 endfacet
 facet normal 1 -0 0
  outer loop
   vertex 1.6 -0.4 0.944
   vertex 1.6 0 0.544
   vertex 1.6 0 0.944
  endloop
 endfacet
endsolid zone0
