solid ASCII
 facet normal 0 -0 1
  outer loop
   vertex 2.6 -0.4 0.8
   vertex 2.6 0.4 0.8
   vertex 1.4 -0.4 0.8
  endloop
 endfacet
 facet normal 0 0 1
  outer loop
   vertex 1.4 -0.4 0.8
   vertex 2.6 0.4 0.8
   vertex 1.4 0.4 0.8
  endloop
 endfacet
 facet normal -1 -0 0
  outer loop
   vertex 1.4 0.4 6.12323e-17
   vertex 1.4 -0.4 1.22465e-17
   vertex 1.4 0.4 0.8
  endloop
 endfacet
 facet normal -1 -0 0
  outer loop
   vertex 1.4 0.4 0.8
   vertex 1.4 -0.4 1.22465e-17
   vertex 1.4 -0.4 0.8
  endloop
 endfacet
 facet normal 0 1 -0
  outer loop
   vertex 2.6 0.4 -1.22465e-17
   vertex 1.4 0.4 6.12323e-17
   vertex 2.6 0.4 0.8
  endloop
 endfacet
 facet normal 0 1 0
  outer loop
   vertex 2.6 0.4 0.8
   vertex 1.4 0.4 6.12323e-17
   vertex 1.4 0.4 0.8
  endloop
 endfacet
 facet normal -6.12323e-17 6.12323e-17 -1
  outer loop
   vertex 2.6 0.4 -1.22465e-17
   vertex 2.6 -0.4 -6.12323e-17
   vertex 1.4 0.4 6.12323e-17
  endloop
 endfacet
 facet normal -6.12323e-17 6.12323e-17 -1
  outer loop
   vertex 1.4 0.4 6.12323e-17
   vertex 2.6 -0.4 -6.12323e-17
   vertex 1.4 -0.4 1.22465e-17
  endloop
 endfacet
 facet normal 0 -1 0
  outer loop
   vertex 1.4 -0.4 1.22465e-17
   vertex 2.6 -0.4 -6.12323e-17
   vertex 1.4 -0.4 0.8
  endloop
 endfacet
 facet normal 0 -1 0
  outer loop
   vertex 1.4 -0.4 0.8
   vertex 2.6 -0.4 -6.12323e-17
   vertex 2.6 -0.4 0.8
  endloop
 endfacet
 facet normal 1 0 0
  outer loop
   vertex 2.6 -0.4 -6.12323e-17
   vertex 2.6 0.4 -1.22465e-17
   vertex 2.6 -0.4 0.8
  endloop
 endfacet
 facet normal 1 -0 0
  outer loop
   vertex 2.6 -0.4 0.8
   vertex 2.6 0.4 -1.22465e-17
   vertex 2.6 0.4 0.8
  endloop
 endfacet
endsolid ASCII
