solid ASCII
 facet normal -0 -1 -0
  outer loop
   vertex 4 -8 6
   vertex -4 -8 6
   vertex 4 -8 -6
  endloop
 endfacet
 facet normal 0 -1 0
  outer loop
   vertex 4 -8 -6
   vertex -4 -8 6
   vertex -4 -8 -6
  endloop
 endfacet
 facet normal 0 0 -1
  outer loop
   vertex -4 -3.67394e-16 -6
   vertex 4 -3.67394e-16 -6
   vertex -4 -8 -6
  endloop
 endfacet
 facet normal 0 0 -1
  outer loop
   vertex -4 -8 -6
   vertex 4 -3.67394e-16 -6
   vertex 4 -8 -6
  endloop
 endfacet
 facet normal -1 -0 0
  outer loop
   vertex -4 3.67394e-16 6
   vertex -4 -3.67394e-16 -6
   vertex -4 -8 6
  endloop
 endfacet
 facet normal -1 0 0
  outer loop
   vertex -4 -8 6
   vertex -4 -3.67394e-16 -6
   vertex -4 -8 -6
  endloop
 endfacet
 facet normal 0 1 -6.12323e-17
  outer loop
   vertex -4 3.67394e-16 6
   vertex 4 3.67394e-16 6
   vertex -4 -3.67394e-16 -6
  endloop
 endfacet
 facet normal 0 1 -6.12323e-17
  outer loop
   vertex -4 -3.67394e-16 -6
   vertex 4 3.67394e-16 6
   vertex 4 -3.67394e-16 -6
  endloop
 endfacet
 facet normal 1 0 -0
  outer loop
   vertex 4 -3.67394e-16 -6
   vertex 4 3.67394e-16 6
   vertex 4 -8 -6
  endloop
 endfacet
 facet normal 1 0 0
  outer loop
   vertex 4 -8 -6
   vertex 4 3.67394e-16 6
   vertex 4 -8 6
  endloop
 endfacet
 facet normal 0 0 1
  outer loop
   vertex 4 3.67394e-16 6
   vertex -4 3.67394e-16 6
   vertex 4 -8 6
  endloop
 endfacet
 facet normal 0 0 1
  outer loop
   vertex 4 -8 6
   vertex -4 3.67394e-16 6
   vertex -4 -8 6
  endloop
 endfacet
endsolid ASCII
