solid ASCII
 facet normal -1 0 0
  outer loop
   vertex -20 20 -1.22465e-15
   vertex -20 -20 -1.22465e-15
   vertex -20 20 4
  endloop
 endfacet
 facet normal -1 -0 0
  outer loop
   vertex -20 20 4
   vertex -20 -20 -1.22465e-15
   vertex -20 -20 4
  endloop
 endfacet
 facet normal 0 1 -0
  outer loop
   vertex 20 20 1.22465e-15
   vertex -20 20 -1.22465e-15
   vertex 20 20 4
  endloop
 endfacet
 facet normal 0 1 0
  outer loop
   vertex 20 20 4
   vertex -20 20 -1.22465e-15
   vertex -20 20 4
  endloop
 endfacet
 facet normal 1 0 0
  outer loop
   vertex 20 -20 1.22465e-15
   vertex 20 20 1.22465e-15
   vertex 20 -20 4
  endloop
 endfacet
 facet normal 1 -0 0
  outer loop
   vertex 20 -20 4
   vertex 20 20 1.22465e-15
   vertex 20 20 4
  endloop
 endfacet
 facet normal 0 -1 0
  outer loop
   vertex -20 -20 -1.22465e-15
   vertex 20 -20 1.22465e-15
   vertex -20 -20 4
  endloop
 endfacet
 facet normal 0 -1 0
  outer loop
   vertex -20 -20 4
   vertex 20 -20 1.22465e-15
   vertex 20 -20 4
  endloop
 endfacet
 facet normal 6.12323e-17 0 -1
  outer loop
   vertex -20 -20 -1.22465e-15
   vertex -20 20 -1.22465e-15
   vertex 20 -20 1.22465e-15
  endloop
 endfacet
 facet normal 6.12323e-17 0 -1
  outer loop
   vertex 20 -20 1.22465e-15
   vertex -20 20 -1.22465e-15
   vertex 20 20 1.22465e-15
  endloop
 endfacet
 facet normal 0 -0 1
  outer loop
   vertex 20 -20 4
   vertex 20 20 4
   vertex -20 -20 4
  endloop
 endfacet
 facet normal 0 0 1
  outer loop
   vertex -20 -20 4
   vertex 20 20 4
   vertex -20 20 4
  endloop
 endfacet
endsolid ASCII
