solid patch0
 facet normal 0 -1 0
  outer loop
   vertex 0.59 0.39 -0.39
   vertex 0.59 0.39 -0.01
   vertex 0.01 0.39 -0.39
  endloop
 endfacet
 facet normal 0 -1 0
  outer loop
   vertex 0.01 0.39 -0.39
   vertex 0.59 0.39 -0.01
   vertex 0.01 0.39 -0.01
  endloop
 endfacet
 facet normal 0 0 -1
  outer loop
   vertex 0.59 0.02 0.39
   vertex 0.01 0.02 0.39
   vertex 0.59 0.39 0.39
  endloop
 endfacet
 facet normal -0 0 -1
  outer loop
   vertex 0.59 0.39 0.39
   vertex 0.01 0.02 0.39
   vertex 0.01 0.39 0.39
  endloop
 endfacet
 facet normal -1 0 0
  outer loop
   vertex 0.59 0.02 0.01
   vertex 0.59 0.02 0.39
   vertex 0.59 0.39 0.01
  endloop
 endfacet
 facet normal -1 0 0
  outer loop
   vertex 0.59 0.39 0.01
   vertex 0.59 0.02 0.39
   vertex 0.59 0.39 0.39
  endloop
 endfacet
 facet normal 0 0 1
  outer loop
   vertex -0.59 0.02 0.01
   vertex -0.01 0.02 0.01
   vertex -0.59 0.39 0.01
  endloop
 endfacet
 facet normal -0 0 1
  outer loop
   vertex -0.59 0.39 0.01
   vertex -0.01 0.02 0.01
   vertex -0.01 0.39 0.01
  endloop
 endfacet
 facet normal 1 -0 0
  outer loop
   vertex -0.59 0.02 0.39
   vertex -0.59 0.02 0.01
   vertex -0.59 0.39 0.39
  endloop
 endfacet
 facet normal 1 0 0
  outer loop
   vertex -0.59 0.39 0.39
   vertex -0.59 0.02 0.01
   vertex -0.59 0.39 0.01
  endloop
 endfacet
 facet normal 0 0 -1
  outer loop
   vertex 0.59 0.02 -0.01
   vertex 0.01 0.02 -0.01
   vertex 0.59 0.39 -0.01
  endloop
 endfacet
 facet normal -0 0 -1
  outer loop
   vertex 0.59 0.39 -0.01
   vertex 0.01 0.02 -0.01
   vertex 0.01 0.39 -0.01
  endloop
 endfacet
 facet normal -1 0 0
  outer loop
   vertex 0.59 0.02 -0.39
   vertex 0.59 0.02 -0.01
   vertex 0.59 0.39 -0.39
  endloop
 endfacet
 facet normal -1 0 0
  outer loop
   vertex 0.59 0.39 -0.39
   vertex 0.59 0.02 -0.01
   vertex 0.59 0.39 -0.01
  endloop
 endfacet
 facet normal 1 -0 0
  outer loop
   vertex 0.6 -0.38 0.4
   vertex 0.6 -0.38 -0.4
   vertex 0.6 0.8 0.4
  endloop
 endfacet
 facet normal 1 0 0
  outer loop
   vertex 0.6 0.8 0.4
   vertex 0.6 -0.38 -0.4
   vertex 0.6 0.8 -0.4
  endloop
 endfacet
 facet normal 0 0 1
  outer loop
   vertex -0.59 0.02 -0.39
   vertex -0.01 0.02 -0.39
   vertex -0.59 0.39 -0.39
  endloop
 endfacet
 facet normal -0 0 1
  outer loop
   vertex -0.59 0.39 -0.39
   vertex -0.01 0.02 -0.39
   vertex -0.01 0.39 -0.39
  endloop
 endfacet
 facet normal 1 -0 0
  outer loop
   vertex -0.59 0.02 -0.01
   vertex -0.59 0.02 -0.39
   vertex -0.59 0.39 -0.01
  endloop
 endfacet
 facet normal 1 0 0
  outer loop
   vertex -0.59 0.39 -0.01
   vertex -0.59 0.02 -0.39
   vertex -0.59 0.39 -0.39
  endloop
 endfacet
 facet normal 0 -1 0
  outer loop
   vertex -0.59 0 0.39
   vertex -0.59 0 0.01
   vertex -0.01 0 0.39
  endloop
 endfacet
 facet normal 0 -1 -0
  outer loop
   vertex -0.01 0 0.39
   vertex -0.59 0 0.01
   vertex -0.01 0 0.01
  endloop
 endfacet
 facet normal 0 0 1
  outer loop
   vertex 0.6 0.8 0.4
   vertex -0.6 0.8 0.4
   vertex 0.6 -0.38 0.4
  endloop
 endfacet
 facet normal 0 0 1
  outer loop
   vertex 0.6 -0.38 0.4
   vertex -0.6 0.8 0.4
   vertex -0.6 -0.38 0.4
  endloop
 endfacet
 facet normal 0 -1 0
  outer loop
   vertex -0.59 0.39 -0.01
   vertex -0.59 0.39 -0.39
   vertex -0.01 0.39 -0.01
  endloop
 endfacet
 facet normal 0 -1 -0
  outer loop
   vertex -0.01 0.39 -0.01
   vertex -0.59 0.39 -0.39
   vertex -0.01 0.39 -0.39
  endloop
 endfacet
 facet normal 1 -0 0
  outer loop
   vertex 0.01 0.02 0.39
   vertex 0.01 0.02 0.01
   vertex 0.01 0.39 0.39
  endloop
 endfacet
 facet normal 1 0 0
  outer loop
   vertex 0.01 0.39 0.39
   vertex 0.01 0.02 0.01
   vertex 0.01 0.39 0.01
  endloop
 endfacet
 facet normal 0 0 1
  outer loop
   vertex 0.01 0.02 0.01
   vertex 0.59 0.02 0.01
   vertex 0.01 0.39 0.01
  endloop
 endfacet
 facet normal -0 0 1
  outer loop
   vertex 0.01 0.39 0.01
   vertex 0.59 0.02 0.01
   vertex 0.59 0.39 0.01
  endloop
 endfacet
 facet normal 0 0 -1
  outer loop
   vertex 0.01 0 0.39
   vertex 0.59 0 0.39
   vertex 0.01 -0.37 0.39
  endloop
 endfacet
 facet normal 0 0 -1
  outer loop
   vertex 0.01 -0.37 0.39
   vertex 0.59 0 0.39
   vertex 0.59 -0.37 0.39
  endloop
 endfacet
 facet normal -1 -0 -0
  outer loop
   vertex 0.59 0 0.39
   vertex 0.59 0 0.01
   vertex 0.59 -0.37 0.39
  endloop
 endfacet
 facet normal -1 0 0
  outer loop
   vertex 0.59 -0.37 0.39
   vertex 0.59 0 0.01
   vertex 0.59 -0.37 0.01
  endloop
 endfacet
 facet normal 0 1 0
  outer loop
   vertex 0.59 0.02 0.39
   vertex 0.59 0.02 0.01
   vertex 0.01 0.02 0.39
  endloop
 endfacet
 facet normal 0 1 0
  outer loop
   vertex 0.01 0.02 0.39
   vertex 0.59 0.02 0.01
   vertex 0.01 0.02 0.01
  endloop
 endfacet
 facet normal 0 -1 0
  outer loop
   vertex -0.59 0.39 0.39
   vertex -0.59 0.39 0.01
   vertex -0.01 0.39 0.39
  endloop
 endfacet
 facet normal 0 -1 -0
  outer loop
   vertex -0.01 0.39 0.39
   vertex -0.59 0.39 0.01
   vertex -0.01 0.39 0.01
  endloop
 endfacet
 facet normal 0 0 1
  outer loop
   vertex 0.59 0 0.01
   vertex 0.01 0 0.01
   vertex 0.59 -0.37 0.01
  endloop
 endfacet
 facet normal 0 0 1
  outer loop
   vertex 0.59 -0.37 0.01
   vertex 0.01 0 0.01
   vertex 0.01 -0.37 0.01
  endloop
 endfacet
 facet normal 1 0 -0
  outer loop
   vertex 0.01 0 0.01
   vertex 0.01 0 0.39
   vertex 0.01 -0.37 0.01
  endloop
 endfacet
 facet normal 1 0 0
  outer loop
   vertex 0.01 -0.37 0.01
   vertex 0.01 0 0.39
   vertex 0.01 -0.37 0.39
  endloop
 endfacet
 facet normal 0 1 0
  outer loop
   vertex 0.59 -0.37 0.39
   vertex 0.59 -0.37 0.01
   vertex 0.01 -0.37 0.39
  endloop
 endfacet
 facet normal 0 1 0
  outer loop
   vertex 0.01 -0.37 0.39
   vertex 0.59 -0.37 0.01
   vertex 0.01 -0.37 0.01
  endloop
 endfacet
 facet normal 0 -1 0
  outer loop
   vertex 0.59 0.79 0.01
   vertex 0.59 0.79 0.39
   vertex 0.01 0.79 0.01
  endloop
 endfacet
 facet normal 0 -1 0
  outer loop
   vertex 0.01 0.79 0.01
   vertex 0.59 0.79 0.39
   vertex 0.01 0.79 0.39
  endloop
 endfacet
 facet normal -1 0 0
  outer loop
   vertex -0.01 0.02 0.01
   vertex -0.01 0.02 0.39
   vertex -0.01 0.39 0.01
  endloop
 endfacet
 facet normal -1 0 0
  outer loop
   vertex -0.01 0.39 0.01
   vertex -0.01 0.02 0.39
   vertex -0.01 0.39 0.39
  endloop
 endfacet
 facet normal 0 0 -1
  outer loop
   vertex -0.01 0.02 0.39
   vertex -0.59 0.02 0.39
   vertex -0.01 0.39 0.39
  endloop
 endfacet
 facet normal -0 0 -1
  outer loop
   vertex -0.01 0.39 0.39
   vertex -0.59 0.02 0.39
   vertex -0.59 0.39 0.39
  endloop
 endfacet
 facet normal 0 -1 0
  outer loop
   vertex 0.59 0.39 0.01
   vertex 0.59 0.39 0.39
   vertex 0.01 0.39 0.01
  endloop
 endfacet
 facet normal 0 -1 0
  outer loop
   vertex 0.01 0.39 0.01
   vertex 0.59 0.39 0.39
   vertex 0.01 0.39 0.39
  endloop
 endfacet
 facet normal 0 -1 0
  outer loop
   vertex 0.59 0 0.01
   vertex 0.59 0 0.39
   vertex 0.01 0 0.01
  endloop
 endfacet
 facet normal 0 -1 0
  outer loop
   vertex 0.01 0 0.01
   vertex 0.59 0 0.39
   vertex 0.01 0 0.39
  endloop
 endfacet
 facet normal 0 0 1
  outer loop
   vertex -0.01 0 0.01
   vertex -0.59 0 0.01
   vertex -0.01 -0.37 0.01
  endloop
 endfacet
 facet normal 0 0 1
  outer loop
   vertex -0.01 -0.37 0.01
   vertex -0.59 0 0.01
   vertex -0.59 -0.37 0.01
  endloop
 endfacet
 facet normal 1 0 -0
  outer loop
   vertex -0.59 0 0.01
   vertex -0.59 0 0.39
   vertex -0.59 -0.37 0.01
  endloop
 endfacet
 facet normal 1 0 0
  outer loop
   vertex -0.59 -0.37 0.01
   vertex -0.59 0 0.39
   vertex -0.59 -0.37 0.39
  endloop
 endfacet
 facet normal 0 1 0
  outer loop
   vertex -0.59 0.02 0.01
   vertex -0.59 0.02 0.39
   vertex -0.01 0.02 0.01
  endloop
 endfacet
 facet normal 0 1 -0
  outer loop
   vertex -0.01 0.02 0.01
   vertex -0.59 0.02 0.39
   vertex -0.01 0.02 0.39
  endloop
 endfacet
 facet normal 0 1 0
  outer loop
   vertex -0.59 0.41 -0.39
   vertex -0.59 0.41 -0.01
   vertex -0.01 0.41 -0.39
  endloop
 endfacet
 facet normal 0 1 -0
  outer loop
   vertex -0.01 0.41 -0.39
   vertex -0.59 0.41 -0.01
   vertex -0.01 0.41 -0.01
  endloop
 endfacet
 facet normal 0 1 0
  outer loop
   vertex 0.6 0.8 0.4
   vertex 0.6 0.8 -0.4
   vertex -0.6 0.8 0.4
  endloop
 endfacet
 facet normal 0 1 0
  outer loop
   vertex -0.6 0.8 0.4
   vertex 0.6 0.8 -0.4
   vertex -0.6 0.8 -0.4
  endloop
 endfacet
 facet normal 1 0 -0
  outer loop
   vertex -0.59 0.79 -0.39
   vertex -0.59 0.79 -0.01
   vertex -0.59 0.41 -0.39
  endloop
 endfacet
 facet normal 1 0 0
  outer loop
   vertex -0.59 0.41 -0.39
   vertex -0.59 0.79 -0.01
   vertex -0.59 0.41 -0.01
  endloop
 endfacet
 facet normal 0 0 1
  outer loop
   vertex -0.01 0.79 -0.39
   vertex -0.59 0.79 -0.39
   vertex -0.01 0.41 -0.39
  endloop
 endfacet
 facet normal 0 0 1
  outer loop
   vertex -0.01 0.41 -0.39
   vertex -0.59 0.79 -0.39
   vertex -0.59 0.41 -0.39
  endloop
 endfacet
 facet normal -1 -0 -0
  outer loop
   vertex -0.01 0.79 -0.01
   vertex -0.01 0.79 -0.39
   vertex -0.01 0.41 -0.01
  endloop
 endfacet
 facet normal -1 0 0
  outer loop
   vertex -0.01 0.41 -0.01
   vertex -0.01 0.79 -0.39
   vertex -0.01 0.41 -0.39
  endloop
 endfacet
 facet normal 0 0 -1
  outer loop
   vertex -0.59 0.79 -0.01
   vertex -0.01 0.79 -0.01
   vertex -0.59 0.41 -0.01
  endloop
 endfacet
 facet normal 0 0 -1
  outer loop
   vertex -0.59 0.41 -0.01
   vertex -0.01 0.79 -0.01
   vertex -0.01 0.41 -0.01
  endloop
 endfacet
 facet normal 0 -1 0
  outer loop
   vertex -0.59 0.79 -0.01
   vertex -0.59 0.79 -0.39
   vertex -0.01 0.79 -0.01
  endloop
 endfacet
 facet normal 0 -1 -0
  outer loop
   vertex -0.01 0.79 -0.01
   vertex -0.59 0.79 -0.39
   vertex -0.01 0.79 -0.39
  endloop
 endfacet
 facet normal 0 1 0
  outer loop
   vertex 0.59 0.41 -0.01
   vertex 0.59 0.41 -0.39
   vertex 0.01 0.41 -0.01
  endloop
 endfacet
 facet normal 0 1 0
  outer loop
   vertex 0.01 0.41 -0.01
   vertex 0.59 0.41 -0.39
   vertex 0.01 0.41 -0.39
  endloop
 endfacet
 facet normal -1 -0 -0
  outer loop
   vertex 0.59 0.79 -0.01
   vertex 0.59 0.79 -0.39
   vertex 0.59 0.41 -0.01
  endloop
 endfacet
 facet normal -1 0 0
  outer loop
   vertex 0.59 0.41 -0.01
   vertex 0.59 0.79 -0.39
   vertex 0.59 0.41 -0.39
  endloop
 endfacet
 facet normal 0 0 1
  outer loop
   vertex 0.59 0.79 -0.39
   vertex 0.01 0.79 -0.39
   vertex 0.59 0.41 -0.39
  endloop
 endfacet
 facet normal 0 0 1
  outer loop
   vertex 0.59 0.41 -0.39
   vertex 0.01 0.79 -0.39
   vertex 0.01 0.41 -0.39
  endloop
 endfacet
 facet normal 1 0 -0
  outer loop
   vertex 0.01 0.79 -0.39
   vertex 0.01 0.79 -0.01
   vertex 0.01 0.41 -0.39
  endloop
 endfacet
 facet normal 1 0 0
  outer loop
   vertex 0.01 0.41 -0.39
   vertex 0.01 0.79 -0.01
   vertex 0.01 0.41 -0.01
  endloop
 endfacet
 facet normal 0 0 -1
  outer loop
   vertex 0.01 0.79 -0.01
   vertex 0.59 0.79 -0.01
   vertex 0.01 0.41 -0.01
  endloop
 endfacet
 facet normal 0 0 -1
  outer loop
   vertex 0.01 0.41 -0.01
   vertex 0.59 0.79 -0.01
   vertex 0.59 0.41 -0.01
  endloop
 endfacet
 facet normal 0 -1 0
  outer loop
   vertex 0.59 0.79 -0.39
   vertex 0.59 0.79 -0.01
   vertex 0.01 0.79 -0.39
  endloop
 endfacet
 facet normal 0 -1 0
  outer loop
   vertex 0.01 0.79 -0.39
   vertex 0.59 0.79 -0.01
   vertex 0.01 0.79 -0.01
  endloop
 endfacet
 facet normal 0 1 0
  outer loop
   vertex -0.59 0.41 0.01
   vertex -0.59 0.41 0.39
   vertex -0.01 0.41 0.01
  endloop
 endfacet
 facet normal 0 1 -0
  outer loop
   vertex -0.01 0.41 0.01
   vertex -0.59 0.41 0.39
   vertex -0.01 0.41 0.39
  endloop
 endfacet
 facet normal 1 0 -0
  outer loop
   vertex -0.59 0.79 0.01
   vertex -0.59 0.79 0.39
   vertex -0.59 0.41 0.01
  endloop
 endfacet
 facet normal 1 0 0
  outer loop
   vertex -0.59 0.41 0.01
   vertex -0.59 0.79 0.39
   vertex -0.59 0.41 0.39
  endloop
 endfacet
 facet normal 0 0 -1
  outer loop
   vertex -0.59 0.79 0.39
   vertex -0.01 0.79 0.39
   vertex -0.59 0.41 0.39
  endloop
 endfacet
 facet normal 0 0 -1
  outer loop
   vertex -0.59 0.41 0.39
   vertex -0.01 0.79 0.39
   vertex -0.01 0.41 0.39
  endloop
 endfacet
 facet normal -1 -0 -0
  outer loop
   vertex -0.01 0.79 0.39
   vertex -0.01 0.79 0.01
   vertex -0.01 0.41 0.39
  endloop
 endfacet
 facet normal -1 0 0
  outer loop
   vertex -0.01 0.41 0.39
   vertex -0.01 0.79 0.01
   vertex -0.01 0.41 0.01
  endloop
 endfacet
 facet normal 0 0 1
  outer loop
   vertex -0.01 0.79 0.01
   vertex -0.59 0.79 0.01
   vertex -0.01 0.41 0.01
  endloop
 endfacet
 facet normal 0 0 1
  outer loop
   vertex -0.01 0.41 0.01
   vertex -0.59 0.79 0.01
   vertex -0.59 0.41 0.01
  endloop
 endfacet
 facet normal 0 -1 0
  outer loop
   vertex -0.59 0.79 0.39
   vertex -0.59 0.79 0.01
   vertex -0.01 0.79 0.39
  endloop
 endfacet
 facet normal 0 -1 -0
  outer loop
   vertex -0.01 0.79 0.39
   vertex -0.59 0.79 0.01
   vertex -0.01 0.79 0.01
  endloop
 endfacet
 facet normal 0 1 0
  outer loop
   vertex 0.59 0.41 0.39
   vertex 0.59 0.41 0.01
   vertex 0.01 0.41 0.39
  endloop
 endfacet
 facet normal 0 1 0
  outer loop
   vertex 0.01 0.41 0.39
   vertex 0.59 0.41 0.01
   vertex 0.01 0.41 0.01
  endloop
 endfacet
 facet normal -1 -0 -0
  outer loop
   vertex 0.59 0.79 0.39
   vertex 0.59 0.79 0.01
   vertex 0.59 0.41 0.39
  endloop
 endfacet
 facet normal -1 0 0
  outer loop
   vertex 0.59 0.41 0.39
   vertex 0.59 0.79 0.01
   vertex 0.59 0.41 0.01
  endloop
 endfacet
 facet normal 0 0 -1
  outer loop
   vertex 0.01 0.79 0.39
   vertex 0.59 0.79 0.39
   vertex 0.01 0.41 0.39
  endloop
 endfacet
 facet normal 0 0 -1
  outer loop
   vertex 0.01 0.41 0.39
   vertex 0.59 0.79 0.39
   vertex 0.59 0.41 0.39
  endloop
 endfacet
 facet normal 1 0 -0
  outer loop
   vertex 0.01 0.79 0.01
   vertex 0.01 0.79 0.39
   vertex 0.01 0.41 0.01
  endloop
 endfacet
 facet normal 1 0 0
  outer loop
   vertex 0.01 0.41 0.01
   vertex 0.01 0.79 0.39
   vertex 0.01 0.41 0.39
  endloop
 endfacet
 facet normal 0 0 1
  outer loop
   vertex 0.59 0.79 0.01
   vertex 0.01 0.79 0.01
   vertex 0.59 0.41 0.01
  endloop
 endfacet
 facet normal 0 0 1
  outer loop
   vertex 0.59 0.41 0.01
   vertex 0.01 0.79 0.01
   vertex 0.01 0.41 0.01
  endloop
 endfacet
 facet normal 0 1 0
  outer loop
   vertex -0.59 -0.37 -0.39
   vertex -0.59 -0.37 -0.01
   vertex -0.01 -0.37 -0.39
  endloop
 endfacet
 facet normal 0 1 -0
  outer loop
   vertex -0.01 -0.37 -0.39
   vertex -0.59 -0.37 -0.01
   vertex -0.01 -0.37 -0.01
  endloop
 endfacet
 facet normal -1 -0 -0
  outer loop
   vertex -0.01 0 -0.01
   vertex -0.01 0 -0.39
   vertex -0.01 -0.37 -0.01
  endloop
 endfacet
 facet normal -1 0 0
  outer loop
   vertex -0.01 -0.37 -0.01
   vertex -0.01 0 -0.39
   vertex -0.01 -0.37 -0.39
  endloop
 endfacet
 facet normal 0 0 -1
  outer loop
   vertex -0.59 0 -0.01
   vertex -0.01 0 -0.01
   vertex -0.59 -0.37 -0.01
  endloop
 endfacet
 facet normal 0 0 -1
  outer loop
   vertex -0.59 -0.37 -0.01
   vertex -0.01 0 -0.01
   vertex -0.01 -0.37 -0.01
  endloop
 endfacet
 facet normal 0 -1 0
  outer loop
   vertex -0.6 -0.38 0.4
   vertex -0.6 -0.38 -0.4
   vertex 0.6 -0.38 0.4
  endloop
 endfacet
 facet normal 0 -1 -0
  outer loop
   vertex 0.6 -0.38 0.4
   vertex -0.6 -0.38 -0.4
   vertex 0.6 -0.38 -0.4
  endloop
 endfacet
 facet normal 0 1 0
  outer loop
   vertex -0.59 0.02 -0.39
   vertex -0.59 0.02 -0.01
   vertex -0.01 0.02 -0.39
  endloop
 endfacet
 facet normal 0 1 -0
  outer loop
   vertex -0.01 0.02 -0.39
   vertex -0.59 0.02 -0.01
   vertex -0.01 0.02 -0.01
  endloop
 endfacet
 facet normal 1 0 -0
  outer loop
   vertex -0.59 0 -0.39
   vertex -0.59 0 -0.01
   vertex -0.59 -0.37 -0.39
  endloop
 endfacet
 facet normal 1 0 0
  outer loop
   vertex -0.59 -0.37 -0.39
   vertex -0.59 0 -0.01
   vertex -0.59 -0.37 -0.01
  endloop
 endfacet
 facet normal 0 0 1
  outer loop
   vertex -0.01 0 -0.39
   vertex -0.59 0 -0.39
   vertex -0.01 -0.37 -0.39
  endloop
 endfacet
 facet normal 0 0 1
  outer loop
   vertex -0.01 -0.37 -0.39
   vertex -0.59 0 -0.39
   vertex -0.59 -0.37 -0.39
  endloop
 endfacet
 facet normal 0 -1 0
  outer loop
   vertex -0.59 0 -0.01
   vertex -0.59 0 -0.39
   vertex -0.01 0 -0.01
  endloop
 endfacet
 facet normal 0 -1 -0
  outer loop
   vertex -0.01 0 -0.01
   vertex -0.59 0 -0.39
   vertex -0.01 0 -0.39
  endloop
 endfacet
 facet normal 0 0 -1
  outer loop
   vertex -0.01 0.02 -0.01
   vertex -0.59 0.02 -0.01
   vertex -0.01 0.39 -0.01
  endloop
 endfacet
 facet normal -0 0 -1
  outer loop
   vertex -0.01 0.39 -0.01
   vertex -0.59 0.02 -0.01
   vertex -0.59 0.39 -0.01
  endloop
 endfacet
 facet normal -1 0 0
  outer loop
   vertex -0.01 0.02 -0.39
   vertex -0.01 0.02 -0.01
   vertex -0.01 0.39 -0.39
  endloop
 endfacet
 facet normal -1 0 0
  outer loop
   vertex -0.01 0.39 -0.39
   vertex -0.01 0.02 -0.01
   vertex -0.01 0.39 -0.01
  endloop
 endfacet
 facet normal -1 -0 -0
  outer loop
   vertex -0.6 0.8 0.4
   vertex -0.6 0.8 -0.4
   vertex -0.6 -0.38 0.4
  endloop
 endfacet
 facet normal -1 0 0
  outer loop
   vertex -0.6 -0.38 0.4
   vertex -0.6 0.8 -0.4
   vertex -0.6 -0.38 -0.4
  endloop
 endfacet
 facet normal 0 1 0
  outer loop
   vertex 0.59 -0.37 -0.01
   vertex 0.59 -0.37 -0.39
   vertex 0.01 -0.37 -0.01
  endloop
 endfacet
 facet normal 0 1 0
  outer loop
   vertex 0.01 -0.37 -0.01
   vertex 0.59 -0.37 -0.39
   vertex 0.01 -0.37 -0.39
  endloop
 endfacet
 facet normal 0 0 1
  outer loop
   vertex 0.59 0 -0.39
   vertex 0.01 0 -0.39
   vertex 0.59 -0.37 -0.39
  endloop
 endfacet
 facet normal 0 0 1
  outer loop
   vertex 0.59 -0.37 -0.39
   vertex 0.01 0 -0.39
   vertex 0.01 -0.37 -0.39
  endloop
 endfacet
 facet normal 1 0 -0
  outer loop
   vertex 0.01 0 -0.39
   vertex 0.01 0 -0.01
   vertex 0.01 -0.37 -0.39
  endloop
 endfacet
 facet normal 1 0 0
  outer loop
   vertex 0.01 -0.37 -0.39
   vertex 0.01 0 -0.01
   vertex 0.01 -0.37 -0.01
  endloop
 endfacet
 facet normal 0 1 0
  outer loop
   vertex 0.59 0.02 -0.01
   vertex 0.59 0.02 -0.39
   vertex 0.01 0.02 -0.01
  endloop
 endfacet
 facet normal 0 1 0
  outer loop
   vertex 0.01 0.02 -0.01
   vertex 0.59 0.02 -0.39
   vertex 0.01 0.02 -0.39
  endloop
 endfacet
 facet normal -1 -0 -0
  outer loop
   vertex 0.59 0 -0.01
   vertex 0.59 0 -0.39
   vertex 0.59 -0.37 -0.01
  endloop
 endfacet
 facet normal -1 0 0
  outer loop
   vertex 0.59 -0.37 -0.01
   vertex 0.59 0 -0.39
   vertex 0.59 -0.37 -0.39
  endloop
 endfacet
 facet normal 0 0 -1
  outer loop
   vertex 0.01 0 -0.01
   vertex 0.59 0 -0.01
   vertex 0.01 -0.37 -0.01
  endloop
 endfacet
 facet normal 0 0 -1
  outer loop
   vertex 0.01 -0.37 -0.01
   vertex 0.59 0 -0.01
   vertex 0.59 -0.37 -0.01
  endloop
 endfacet
 facet normal 0 -1 0
  outer loop
   vertex 0.59 0 -0.39
   vertex 0.59 0 -0.01
   vertex 0.01 0 -0.39
  endloop
 endfacet
 facet normal 0 -1 0
  outer loop
   vertex 0.01 0 -0.39
   vertex 0.59 0 -0.01
   vertex 0.01 0 -0.01
  endloop
 endfacet
 facet normal 0 0 1
  outer loop
   vertex 0.01 0.02 -0.39
   vertex 0.59 0.02 -0.39
   vertex 0.01 0.39 -0.39
  endloop
 endfacet
 facet normal -0 0 1
  outer loop
   vertex 0.01 0.39 -0.39
   vertex 0.59 0.02 -0.39
   vertex 0.59 0.39 -0.39
  endloop
 endfacet
 facet normal 1 -0 0
  outer loop
   vertex 0.01 0.02 -0.01
   vertex 0.01 0.02 -0.39
   vertex 0.01 0.39 -0.01
  endloop
 endfacet
 facet normal 1 0 0
  outer loop
   vertex 0.01 0.39 -0.01
   vertex 0.01 0.02 -0.39
   vertex 0.01 0.39 -0.39
  endloop
 endfacet
 facet normal 0 0 -1
  outer loop
   vertex 0.6 -0.38 -0.4
   vertex -0.6 -0.38 -0.4
   vertex 0.6 0.8 -0.4
  endloop
 endfacet
 facet normal -0 0 -1
  outer loop
   vertex 0.6 0.8 -0.4
   vertex -0.6 -0.38 -0.4
   vertex -0.6 0.8 -0.4
  endloop
 endfacet
 facet normal 0 1 0
  outer loop
   vertex -0.59 -0.37 0.01
   vertex -0.59 -0.37 0.39
   vertex -0.01 -0.37 0.01
  endloop
 endfacet
 facet normal 0 1 -0
  outer loop
   vertex -0.01 -0.37 0.01
   vertex -0.59 -0.37 0.39
   vertex -0.01 -0.37 0.39
  endloop
 endfacet
 facet normal 0 0 -1
  outer loop
   vertex -0.59 0 0.39
   vertex -0.01 0 0.39
   vertex -0.59 -0.37 0.39
  endloop
 endfacet
 facet normal 0 0 -1
  outer loop
   vertex -0.59 -0.37 0.39
   vertex -0.01 0 0.39
   vertex -0.01 -0.37 0.39
  endloop
 endfacet
 facet normal -1 -0 -0
  outer loop
   vertex -0.01 0 0.39
   vertex -0.01 0 0.01
   vertex -0.01 -0.37 0.39
  endloop
 endfacet
 facet normal -1 0 0
  outer loop
   vertex -0.01 -0.37 0.39
   vertex -0.01 0 0.01
   vertex -0.01 -0.37 0.01
  endloop
 endfacet
endsolid patch0
