solid ASCII
 facet normal -1 0 0
  outer loop
   vertex 5.9 2.354 0.002
   vertex 5.9 0.002 0.002
   vertex 5.9 2.354 2.391
  endloop
 endfacet
 facet normal -1 -0 0
  outer loop
   vertex 5.9 2.354 2.391
   vertex 5.9 0.002 0.002
   vertex 5.9 0.002 2.391
  endloop
 endfacet
 facet normal 0 1 -0
  outer loop
   vertex 5.9 0.002 0.002
   vertex 0.002 0.002 0.002
   vertex 5.9 0.002 2.391
  endloop
 endfacet
 facet normal 0 1 0
  outer loop
   vertex 5.9 0.002 2.391
   vertex 0.002 0.002 0.002
   vertex 0.002 0.002 2.391
  endloop
 endfacet
 facet normal 0 -1 0
  outer loop
   vertex 0.002 2.354 0.002
   vertex 5.9 2.354 0.002
   vertex 0.002 2.354 2.391
  endloop
 endfacet
 facet normal 0 -1 0
  outer loop
   vertex 0.002 2.354 2.391
   vertex 5.9 2.354 0.002
   vertex 5.9 2.354 2.391
  endloop
 endfacet
 facet normal 1 0 0
  outer loop
   vertex 0.002 0.002 0.002
   vertex 0.002 2.354 0.002
   vertex 0.002 0.002 2.391
  endloop
 endfacet
 facet normal 1 -0 0
  outer loop
   vertex 0.002 0.002 2.391
   vertex 0.002 2.354 0.002
   vertex 0.002 2.354 2.391
  endloop
 endfacet
 facet normal 0 -1 0
  outer loop
   vertex 0 0 0
   vertex 5.902 0 0
   vertex 0 0 2.393
  endloop
 endfacet
 facet normal 0 -1 0
  outer loop
   vertex 0 0 2.393
   vertex 5.902 0 0
   vertex 5.902 0 2.393
  endloop
 endfacet
 facet normal 1 0 0
  outer loop
   vertex 5.902 0 0
   vertex 5.902 2.356 0
   vertex 5.902 0 2.393
  endloop
 endfacet
 facet normal 1 -0 0
  outer loop
   vertex 5.902 0 2.393
   vertex 5.902 2.356 0
   vertex 5.902 2.356 2.393
  endloop
 endfacet
 facet normal -1 0 0
  outer loop
   vertex 0 2.356 0
   vertex 0 0 0
   vertex 0 2.356 2.393
  endloop
 endfacet
 facet normal -1 -0 0
  outer loop
   vertex 0 2.356 2.393
   vertex 0 0 0
   vertex 0 0 2.393
  endloop
 endfacet
 facet normal 0 1 -0
  outer loop
   vertex 5.902 2.356 0
   vertex 0 2.356 0
   vertex 5.902 2.356 2.393
  endloop
 endfacet
 facet normal 0 1 0
  outer loop
   vertex 5.902 2.356 2.393
   vertex 0 2.356 0
   vertex 0 2.356 2.393
  endloop
 endfacet
 facet normal 0 0 -1
  outer loop
   vertex 0.002 2.354 2.391
   vertex 5.9 2.354 2.391
   vertex 0.002 0.002 2.391
  endloop
 endfacet
 facet normal 0 0 -1
  outer loop
   vertex 0.002 0.002 2.391
   vertex 5.9 2.354 2.391
   vertex 5.9 0.002 2.391
  endloop
 endfacet
 facet normal 0 0 1
  outer loop
   vertex 0.002 0.002 0.002
   vertex 5.9 0.002 0.002
   vertex 0.002 2.354 0.002
  endloop
 endfacet
 facet normal -0 0 1
  outer loop
   vertex 0.002 2.354 0.002
   vertex 5.9 0.002 0.002
   vertex 5.9 2.354 0.002
  endloop
 endfacet
 facet normal 0 0 -1
  outer loop
   vertex 5.902 0 0
   vertex 0 0 0
   vertex 5.902 2.356 0
  endloop
 endfacet
 facet normal -0 0 -1
  outer loop
   vertex 5.902 2.356 0
   vertex 0 0 0
   vertex 0 2.356 0
  endloop
 endfacet
 facet normal 0 0 1
  outer loop
   vertex 0 0 2.393
   vertex 5.902 0 2.393
   vertex 0 2.356 2.393
  endloop
 endfacet
 facet normal -0 0 1
  outer loop
   vertex 0 2.356 2.393
   vertex 5.902 0 2.393
   vertex 5.902 2.356 2.393
  endloop
 endfacet
endsolid ASCII
