solid patch0
 facet normal -0 -0 -1
  outer loop
   vertex 0.59 0.39 0.79
   vertex 0.59 0.01 0.79
   vertex 0.01 0.39 0.79
  endloop
 endfacet
 facet normal 0 0 -1
  outer loop
   vertex 0.01 0.39 0.79
   vertex 0.59 0.01 0.79
   vertex 0.01 0.01 0.79
  endloop
 endfacet
 facet normal 0 1 -0
  outer loop
   vertex 0.59 -0.39 0.42
   vertex 0.01 -0.39 0.42
   vertex 0.59 -0.39 0.79
  endloop
 endfacet
 facet normal 0 1 0
  outer loop
   vertex 0.59 -0.39 0.79
   vertex 0.01 -0.39 0.42
   vertex 0.01 -0.39 0.79
  endloop
 endfacet
 facet normal -1 0 0
  outer loop
   vertex 0.59 -0.01 0.42
   vertex 0.59 -0.39 0.42
   vertex 0.59 -0.01 0.79
  endloop
 endfacet
 facet normal -1 -0 0
  outer loop
   vertex 0.59 -0.01 0.79
   vertex 0.59 -0.39 0.42
   vertex 0.59 -0.39 0.79
  endloop
 endfacet
 facet normal 0 -1 0
  outer loop
   vertex -0.59 -0.01 0.42
   vertex -0.01 -0.01 0.42
   vertex -0.59 -0.01 0.79
  endloop
 endfacet
 facet normal 0 -1 0
  outer loop
   vertex -0.59 -0.01 0.79
   vertex -0.01 -0.01 0.42
   vertex -0.01 -0.01 0.79
  endloop
 endfacet
 facet normal 1 0 0
  outer loop
   vertex -0.59 -0.39 0.42
   vertex -0.59 -0.01 0.42
   vertex -0.59 -0.39 0.79
  endloop
 endfacet
 facet normal 1 -0 0
  outer loop
   vertex -0.59 -0.39 0.79
   vertex -0.59 -0.01 0.42
   vertex -0.59 -0.01 0.79
  endloop
 endfacet
 facet normal 0 1 -0
  outer loop
   vertex 0.59 0.01 0.42
   vertex 0.01 0.01 0.42
   vertex 0.59 0.01 0.79
  endloop
 endfacet
 facet normal 0 1 0
  outer loop
   vertex 0.59 0.01 0.79
   vertex 0.01 0.01 0.42
   vertex 0.01 0.01 0.79
  endloop
 endfacet
 facet normal -1 0 0
  outer loop
   vertex 0.59 0.39 0.42
   vertex 0.59 0.01 0.42
   vertex 0.59 0.39 0.79
  endloop
 endfacet
 facet normal -1 -0 0
  outer loop
   vertex 0.59 0.39 0.79
   vertex 0.59 0.01 0.42
   vertex 0.59 0.01 0.79
  endloop
 endfacet
 facet normal 1 0 0
  outer loop
   vertex 0.6 -0.4 0.02
   vertex 0.6 0.4 0.02
   vertex 0.6 -0.4 1.2
  endloop
 endfacet
 facet normal 1 -0 0
  outer loop
   vertex 0.6 -0.4 1.2
   vertex 0.6 0.4 0.02
   vertex 0.6 0.4 1.2
  endloop
 endfacet
 facet normal 0 -1 0
  outer loop
   vertex -0.59 0.39 0.42
   vertex -0.01 0.39 0.42
   vertex -0.59 0.39 0.79
  endloop
 endfacet
 facet normal 0 -1 0
  outer loop
   vertex -0.59 0.39 0.79
   vertex -0.01 0.39 0.42
   vertex -0.01 0.39 0.79
  endloop
 endfacet
 facet normal 1 0 0
  outer loop
   vertex -0.59 0.01 0.42
   vertex -0.59 0.39 0.42
   vertex -0.59 0.01 0.79
  endloop
 endfacet
 facet normal 1 -0 0
  outer loop
   vertex -0.59 0.01 0.79
   vertex -0.59 0.39 0.42
   vertex -0.59 0.39 0.79
  endloop
 endfacet
 facet normal 0 -1.46082e-16 -1
  outer loop
   vertex -0.59 -0.39 0.4
   vertex -0.59 -0.01 0.4
   vertex -0.01 -0.39 0.4
  endloop
 endfacet
 facet normal 0 -1.46082e-16 -1
  outer loop
   vertex -0.01 -0.39 0.4
   vertex -0.59 -0.01 0.4
   vertex -0.01 -0.01 0.4
  endloop
 endfacet
 facet normal -0 -1 -0
  outer loop
   vertex 0.6 -0.4 1.2
   vertex -0.6 -0.4 1.2
   vertex 0.6 -0.4 0.02
  endloop
 endfacet
 facet normal 0 -1 0
  outer loop
   vertex 0.6 -0.4 0.02
   vertex -0.6 -0.4 1.2
   vertex -0.6 -0.4 0.02
  endloop
 endfacet
 facet normal 0 0 -1
  outer loop
   vertex -0.59 0.01 0.79
   vertex -0.59 0.39 0.79
   vertex -0.01 0.01 0.79
  endloop
 endfacet
 facet normal 0 0 -1
  outer loop
   vertex -0.01 0.01 0.79
   vertex -0.59 0.39 0.79
   vertex -0.01 0.39 0.79
  endloop
 endfacet
 facet normal 1 0 0
  outer loop
   vertex 0.01 -0.39 0.42
   vertex 0.01 -0.01 0.42
   vertex 0.01 -0.39 0.79
  endloop
 endfacet
 facet normal 1 -0 0
  outer loop
   vertex 0.01 -0.39 0.79
   vertex 0.01 -0.01 0.42
   vertex 0.01 -0.01 0.79
  endloop
 endfacet
 facet normal 0 -1 0
  outer loop
   vertex 0.01 -0.01 0.42
   vertex 0.59 -0.01 0.42
   vertex 0.01 -0.01 0.79
  endloop
 endfacet
 facet normal 0 -1 0
  outer loop
   vertex 0.01 -0.01 0.79
   vertex 0.59 -0.01 0.42
   vertex 0.59 -0.01 0.79
  endloop
 endfacet
 facet normal -0 1 0
  outer loop
   vertex 0.01 -0.39 0.4
   vertex 0.59 -0.39 0.4
   vertex 0.01 -0.39 0.03
  endloop
 endfacet
 facet normal 0 1 0
  outer loop
   vertex 0.01 -0.39 0.03
   vertex 0.59 -0.39 0.4
   vertex 0.59 -0.39 0.03
  endloop
 endfacet
 facet normal -1 0 0
  outer loop
   vertex 0.59 -0.39 0.4
   vertex 0.59 -0.01 0.4
   vertex 0.59 -0.39 0.03
  endloop
 endfacet
 facet normal -1 0 0
  outer loop
   vertex 0.59 -0.39 0.03
   vertex 0.59 -0.01 0.4
   vertex 0.59 -0.01 0.03
  endloop
 endfacet
 facet normal 0 -0 1
  outer loop
   vertex 0.59 -0.39 0.42
   vertex 0.59 -0.01 0.42
   vertex 0.01 -0.39 0.42
  endloop
 endfacet
 facet normal 0 0 1
  outer loop
   vertex 0.01 -0.39 0.42
   vertex 0.59 -0.01 0.42
   vertex 0.01 -0.01 0.42
  endloop
 endfacet
 facet normal 0 0 -1
  outer loop
   vertex -0.59 -0.39 0.79
   vertex -0.59 -0.01 0.79
   vertex -0.01 -0.39 0.79
  endloop
 endfacet
 facet normal 0 0 -1
  outer loop
   vertex -0.01 -0.39 0.79
   vertex -0.59 -0.01 0.79
   vertex -0.01 -0.01 0.79
  endloop
 endfacet
 facet normal -0 -1 -0
  outer loop
   vertex 0.59 -0.01 0.4
   vertex 0.01 -0.01 0.4
   vertex 0.59 -0.01 0.03
  endloop
 endfacet
 facet normal 0 -1 0
  outer loop
   vertex 0.59 -0.01 0.03
   vertex 0.01 -0.01 0.4
   vertex 0.01 -0.01 0.03
  endloop
 endfacet
 facet normal 1 0 0
  outer loop
   vertex 0.01 -0.01 0.4
   vertex 0.01 -0.39 0.4
   vertex 0.01 -0.01 0.03
  endloop
 endfacet
 facet normal 1 0 0
  outer loop
   vertex 0.01 -0.01 0.03
   vertex 0.01 -0.39 0.4
   vertex 0.01 -0.39 0.03
  endloop
 endfacet
 facet normal 0 -0 1
  outer loop
   vertex 0.59 -0.39 0.03
   vertex 0.59 -0.01 0.03
   vertex 0.01 -0.39 0.03
  endloop
 endfacet
 facet normal 0 0 1
  outer loop
   vertex 0.01 -0.39 0.03
   vertex 0.59 -0.01 0.03
   vertex 0.01 -0.01 0.03
  endloop
 endfacet
 facet normal -0 -0 -1
  outer loop
   vertex 0.59 -0.01 1.19
   vertex 0.59 -0.39 1.19
   vertex 0.01 -0.01 1.19
  endloop
 endfacet
 facet normal 0 0 -1
  outer loop
   vertex 0.01 -0.01 1.19
   vertex 0.59 -0.39 1.19
   vertex 0.01 -0.39 1.19
  endloop
 endfacet
 facet normal -1 0 0
  outer loop
   vertex -0.01 -0.01 0.42
   vertex -0.01 -0.39 0.42
   vertex -0.01 -0.01 0.79
  endloop
 endfacet
 facet normal -1 -0 0
  outer loop
   vertex -0.01 -0.01 0.79
   vertex -0.01 -0.39 0.42
   vertex -0.01 -0.39 0.79
  endloop
 endfacet
 facet normal 0 1 -0
  outer loop
   vertex -0.01 -0.39 0.42
   vertex -0.59 -0.39 0.42
   vertex -0.01 -0.39 0.79
  endloop
 endfacet
 facet normal 0 1 0
  outer loop
   vertex -0.01 -0.39 0.79
   vertex -0.59 -0.39 0.42
   vertex -0.59 -0.39 0.79
  endloop
 endfacet
 facet normal -0 -0 -1
  outer loop
   vertex 0.59 -0.01 0.79
   vertex 0.59 -0.39 0.79
   vertex 0.01 -0.01 0.79
  endloop
 endfacet
 facet normal 0 0 -1
  outer loop
   vertex 0.01 -0.01 0.79
   vertex 0.59 -0.39 0.79
   vertex 0.01 -0.39 0.79
  endloop
 endfacet
 facet normal -0 -1.46082e-16 -1
  outer loop
   vertex 0.59 -0.01 0.4
   vertex 0.59 -0.39 0.4
   vertex 0.01 -0.01 0.4
  endloop
 endfacet
 facet normal 0 -1.46082e-16 -1
  outer loop
   vertex 0.01 -0.01 0.4
   vertex 0.59 -0.39 0.4
   vertex 0.01 -0.39 0.4
  endloop
 endfacet
 facet normal -0 -1 -0
  outer loop
   vertex -0.01 -0.01 0.4
   vertex -0.59 -0.01 0.4
   vertex -0.01 -0.01 0.03
  endloop
 endfacet
 facet normal 0 -1 0
  outer loop
   vertex -0.01 -0.01 0.03
   vertex -0.59 -0.01 0.4
   vertex -0.59 -0.01 0.03
  endloop
 endfacet
 facet normal 1 0 0
  outer loop
   vertex -0.59 -0.01 0.4
   vertex -0.59 -0.39 0.4
   vertex -0.59 -0.01 0.03
  endloop
 endfacet
 facet normal 1 0 0
  outer loop
   vertex -0.59 -0.01 0.03
   vertex -0.59 -0.39 0.4
   vertex -0.59 -0.39 0.03
  endloop
 endfacet
 facet normal -0 0 1
  outer loop
   vertex -0.59 -0.01 0.42
   vertex -0.59 -0.39 0.42
   vertex -0.01 -0.01 0.42
  endloop
 endfacet
 facet normal 0 0 1
  outer loop
   vertex -0.01 -0.01 0.42
   vertex -0.59 -0.39 0.42
   vertex -0.01 -0.39 0.42
  endloop
 endfacet
 facet normal -0 0 1
  outer loop
   vertex -0.59 0.39 0.81
   vertex -0.59 0.01 0.81
   vertex -0.01 0.39 0.81
  endloop
 endfacet
 facet normal 0 0 1
  outer loop
   vertex -0.01 0.39 0.81
   vertex -0.59 0.01 0.81
   vertex -0.01 0.01 0.81
  endloop
 endfacet
 facet normal 0 -0 1
  outer loop
   vertex 0.6 -0.4 1.2
   vertex 0.6 0.4 1.2
   vertex -0.6 -0.4 1.2
  endloop
 endfacet
 facet normal 0 0 1
  outer loop
   vertex -0.6 -0.4 1.2
   vertex 0.6 0.4 1.2
   vertex -0.6 0.4 1.2
  endloop
 endfacet
 facet normal 1 0 0
  outer loop
   vertex -0.59 0.39 1.19
   vertex -0.59 0.01 1.19
   vertex -0.59 0.39 0.81
  endloop
 endfacet
 facet normal 1 0 0
  outer loop
   vertex -0.59 0.39 0.81
   vertex -0.59 0.01 1.19
   vertex -0.59 0.01 0.81
  endloop
 endfacet
 facet normal -0 -1 -0
  outer loop
   vertex -0.01 0.39 1.19
   vertex -0.59 0.39 1.19
   vertex -0.01 0.39 0.81
  endloop
 endfacet
 facet normal 0 -1 0
  outer loop
   vertex -0.01 0.39 0.81
   vertex -0.59 0.39 1.19
   vertex -0.59 0.39 0.81
  endloop
 endfacet
 facet normal -1 0 0
  outer loop
   vertex -0.01 0.01 1.19
   vertex -0.01 0.39 1.19
   vertex -0.01 0.01 0.81
  endloop
 endfacet
 facet normal -1 0 0
  outer loop
   vertex -0.01 0.01 0.81
   vertex -0.01 0.39 1.19
   vertex -0.01 0.39 0.81
  endloop
 endfacet
 facet normal -0 1 0
  outer loop
   vertex -0.59 0.01 1.19
   vertex -0.01 0.01 1.19
   vertex -0.59 0.01 0.81
  endloop
 endfacet
 facet normal 0 1 0
  outer loop
   vertex -0.59 0.01 0.81
   vertex -0.01 0.01 1.19
   vertex -0.01 0.01 0.81
  endloop
 endfacet
 facet normal 0 0 -1
  outer loop
   vertex -0.59 0.01 1.19
   vertex -0.59 0.39 1.19
   vertex -0.01 0.01 1.19
  endloop
 endfacet
 facet normal 0 0 -1
  outer loop
   vertex -0.01 0.01 1.19
   vertex -0.59 0.39 1.19
   vertex -0.01 0.39 1.19
  endloop
 endfacet
 facet normal 0 -0 1
  outer loop
   vertex 0.59 0.01 0.81
   vertex 0.59 0.39 0.81
   vertex 0.01 0.01 0.81
  endloop
 endfacet
 facet normal 0 0 1
  outer loop
   vertex 0.01 0.01 0.81
   vertex 0.59 0.39 0.81
   vertex 0.01 0.39 0.81
  endloop
 endfacet
 facet normal -1 0 0
  outer loop
   vertex 0.59 0.01 1.19
   vertex 0.59 0.39 1.19
   vertex 0.59 0.01 0.81
  endloop
 endfacet
 facet normal -1 0 0
  outer loop
   vertex 0.59 0.01 0.81
   vertex 0.59 0.39 1.19
   vertex 0.59 0.39 0.81
  endloop
 endfacet
 facet normal -0 -1 -0
  outer loop
   vertex 0.59 0.39 1.19
   vertex 0.01 0.39 1.19
   vertex 0.59 0.39 0.81
  endloop
 endfacet
 facet normal 0 -1 0
  outer loop
   vertex 0.59 0.39 0.81
   vertex 0.01 0.39 1.19
   vertex 0.01 0.39 0.81
  endloop
 endfacet
 facet normal 1 0 0
  outer loop
   vertex 0.01 0.39 1.19
   vertex 0.01 0.01 1.19
   vertex 0.01 0.39 0.81
  endloop
 endfacet
 facet normal 1 0 0
  outer loop
   vertex 0.01 0.39 0.81
   vertex 0.01 0.01 1.19
   vertex 0.01 0.01 0.81
  endloop
 endfacet
 facet normal -0 1 0
  outer loop
   vertex 0.01 0.01 1.19
   vertex 0.59 0.01 1.19
   vertex 0.01 0.01 0.81
  endloop
 endfacet
 facet normal 0 1 0
  outer loop
   vertex 0.01 0.01 0.81
   vertex 0.59 0.01 1.19
   vertex 0.59 0.01 0.81
  endloop
 endfacet
 facet normal -0 -0 -1
  outer loop
   vertex 0.59 0.39 1.19
   vertex 0.59 0.01 1.19
   vertex 0.01 0.39 1.19
  endloop
 endfacet
 facet normal 0 0 -1
  outer loop
   vertex 0.01 0.39 1.19
   vertex 0.59 0.01 1.19
   vertex 0.01 0.01 1.19
  endloop
 endfacet
 facet normal -0 0 1
  outer loop
   vertex -0.59 -0.01 0.81
   vertex -0.59 -0.39 0.81
   vertex -0.01 -0.01 0.81
  endloop
 endfacet
 facet normal 0 0 1
  outer loop
   vertex -0.01 -0.01 0.81
   vertex -0.59 -0.39 0.81
   vertex -0.01 -0.39 0.81
  endloop
 endfacet
 facet normal 1 0 0
  outer loop
   vertex -0.59 -0.01 1.19
   vertex -0.59 -0.39 1.19
   vertex -0.59 -0.01 0.81
  endloop
 endfacet
 facet normal 1 0 0
  outer loop
   vertex -0.59 -0.01 0.81
   vertex -0.59 -0.39 1.19
   vertex -0.59 -0.39 0.81
  endloop
 endfacet
 facet normal -0 1 0
  outer loop
   vertex -0.59 -0.39 1.19
   vertex -0.01 -0.39 1.19
   vertex -0.59 -0.39 0.81
  endloop
 endfacet
 facet normal 0 1 0
  outer loop
   vertex -0.59 -0.39 0.81
   vertex -0.01 -0.39 1.19
   vertex -0.01 -0.39 0.81
  endloop
 endfacet
 facet normal -1 0 0
  outer loop
   vertex -0.01 -0.39 1.19
   vertex -0.01 -0.01 1.19
   vertex -0.01 -0.39 0.81
  endloop
 endfacet
 facet normal -1 0 0
  outer loop
   vertex -0.01 -0.39 0.81
   vertex -0.01 -0.01 1.19
   vertex -0.01 -0.01 0.81
  endloop
 endfacet
 facet normal -0 -1 -0
  outer loop
   vertex -0.01 -0.01 1.19
   vertex -0.59 -0.01 1.19
   vertex -0.01 -0.01 0.81
  endloop
 endfacet
 facet normal 0 -1 0
  outer loop
   vertex -0.01 -0.01 0.81
   vertex -0.59 -0.01 1.19
   vertex -0.59 -0.01 0.81
  endloop
 endfacet
 facet normal 0 0 -1
  outer loop
   vertex -0.59 -0.39 1.19
   vertex -0.59 -0.01 1.19
   vertex -0.01 -0.39 1.19
  endloop
 endfacet
 facet normal 0 0 -1
  outer loop
   vertex -0.01 -0.39 1.19
   vertex -0.59 -0.01 1.19
   vertex -0.01 -0.01 1.19
  endloop
 endfacet
 facet normal 0 -0 1
  outer loop
   vertex 0.59 -0.39 0.81
   vertex 0.59 -0.01 0.81
   vertex 0.01 -0.39 0.81
  endloop
 endfacet
 facet normal 0 0 1
  outer loop
   vertex 0.01 -0.39 0.81
   vertex 0.59 -0.01 0.81
   vertex 0.01 -0.01 0.81
  endloop
 endfacet
 facet normal -1 0 0
  outer loop
   vertex 0.59 -0.39 1.19
   vertex 0.59 -0.01 1.19
   vertex 0.59 -0.39 0.81
  endloop
 endfacet
 facet normal -1 0 0
  outer loop
   vertex 0.59 -0.39 0.81
   vertex 0.59 -0.01 1.19
   vertex 0.59 -0.01 0.81
  endloop
 endfacet
 facet normal -0 1 0
  outer loop
   vertex 0.01 -0.39 1.19
   vertex 0.59 -0.39 1.19
   vertex 0.01 -0.39 0.81
  endloop
 endfacet
 facet normal 0 1 0
  outer loop
   vertex 0.01 -0.39 0.81
   vertex 0.59 -0.39 1.19
   vertex 0.59 -0.39 0.81
  endloop
 endfacet
 facet normal 1 0 0
  outer loop
   vertex 0.01 -0.01 1.19
   vertex 0.01 -0.39 1.19
   vertex 0.01 -0.01 0.81
  endloop
 endfacet
 facet normal 1 0 0
  outer loop
   vertex 0.01 -0.01 0.81
   vertex 0.01 -0.39 1.19
   vertex 0.01 -0.39 0.81
  endloop
 endfacet
 facet normal -0 -1 -0
  outer loop
   vertex 0.59 -0.01 1.19
   vertex 0.01 -0.01 1.19
   vertex 0.59 -0.01 0.81
  endloop
 endfacet
 facet normal 0 -1 0
  outer loop
   vertex 0.59 -0.01 0.81
   vertex 0.01 -0.01 1.19
   vertex 0.01 -0.01 0.81
  endloop
 endfacet
 facet normal -0 0 1
  outer loop
   vertex -0.59 0.39 0.03
   vertex -0.59 0.01 0.03
   vertex -0.01 0.39 0.03
  endloop
 endfacet
 facet normal 0 0 1
  outer loop
   vertex -0.01 0.39 0.03
   vertex -0.59 0.01 0.03
   vertex -0.01 0.01 0.03
  endloop
 endfacet
 facet normal -1 0 0
  outer loop
   vertex -0.01 0.01 0.4
   vertex -0.01 0.39 0.4
   vertex -0.01 0.01 0.03
  endloop
 endfacet
 facet normal -1 0 0
  outer loop
   vertex -0.01 0.01 0.03
   vertex -0.01 0.39 0.4
   vertex -0.01 0.39 0.03
  endloop
 endfacet
 facet normal -0 1 0
  outer loop
   vertex -0.59 0.01 0.4
   vertex -0.01 0.01 0.4
   vertex -0.59 0.01 0.03
  endloop
 endfacet
 facet normal 0 1 0
  outer loop
   vertex -0.59 0.01 0.03
   vertex -0.01 0.01 0.4
   vertex -0.01 0.01 0.03
  endloop
 endfacet
 facet normal 0 0 -1
  outer loop
   vertex -0.6 -0.4 0.02
   vertex -0.6 0.4 0.02
   vertex 0.6 -0.4 0.02
  endloop
 endfacet
 facet normal 0 0 -1
  outer loop
   vertex 0.6 -0.4 0.02
   vertex -0.6 0.4 0.02
   vertex 0.6 0.4 0.02
  endloop
 endfacet
 facet normal -0 0 1
  outer loop
   vertex -0.59 0.39 0.42
   vertex -0.59 0.01 0.42
   vertex -0.01 0.39 0.42
  endloop
 endfacet
 facet normal 0 0 1
  outer loop
   vertex -0.01 0.39 0.42
   vertex -0.59 0.01 0.42
   vertex -0.01 0.01 0.42
  endloop
 endfacet
 facet normal 1 0 0
  outer loop
   vertex -0.59 0.39 0.4
   vertex -0.59 0.01 0.4
   vertex -0.59 0.39 0.03
  endloop
 endfacet
 facet normal 1 0 0
  outer loop
   vertex -0.59 0.39 0.03
   vertex -0.59 0.01 0.4
   vertex -0.59 0.01 0.03
  endloop
 endfacet
 facet normal -0 -1 -0
  outer loop
   vertex -0.01 0.39 0.4
   vertex -0.59 0.39 0.4
   vertex -0.01 0.39 0.03
  endloop
 endfacet
 facet normal 0 -1 0
  outer loop
   vertex -0.01 0.39 0.03
   vertex -0.59 0.39 0.4
   vertex -0.59 0.39 0.03
  endloop
 endfacet
 facet normal 0 0 -1
  outer loop
   vertex -0.59 0.01 0.4
   vertex -0.59 0.39 0.4
   vertex -0.01 0.01 0.4
  endloop
 endfacet
 facet normal 0 0 -1
  outer loop
   vertex -0.01 0.01 0.4
   vertex -0.59 0.39 0.4
   vertex -0.01 0.39 0.4
  endloop
 endfacet
 facet normal 0 1 -0
  outer loop
   vertex -0.01 0.01 0.42
   vertex -0.59 0.01 0.42
   vertex -0.01 0.01 0.79
  endloop
 endfacet
 facet normal 0 1 0
  outer loop
   vertex -0.01 0.01 0.79
   vertex -0.59 0.01 0.42
   vertex -0.59 0.01 0.79
  endloop
 endfacet
 facet normal -1 0 0
  outer loop
   vertex -0.01 0.39 0.42
   vertex -0.01 0.01 0.42
   vertex -0.01 0.39 0.79
  endloop
 endfacet
 facet normal -1 -0 0
  outer loop
   vertex -0.01 0.39 0.79
   vertex -0.01 0.01 0.42
   vertex -0.01 0.01 0.79
  endloop
 endfacet
 facet normal -1 0 0
  outer loop
   vertex -0.6 -0.4 1.2
   vertex -0.6 0.4 1.2
   vertex -0.6 -0.4 0.02
  endloop
 endfacet
 facet normal -1 0 0
  outer loop
   vertex -0.6 -0.4 0.02
   vertex -0.6 0.4 1.2
   vertex -0.6 0.4 0.02
  endloop
 endfacet
 facet normal 0 -0 1
  outer loop
   vertex 0.59 0.01 0.03
   vertex 0.59 0.39 0.03
   vertex 0.01 0.01 0.03
  endloop
 endfacet
 facet normal 0 0 1
  outer loop
   vertex 0.01 0.01 0.03
   vertex 0.59 0.39 0.03
   vertex 0.01 0.39 0.03
  endloop
 endfacet
 facet normal -0 -1 -0
  outer loop
   vertex 0.59 0.39 0.4
   vertex 0.01 0.39 0.4
   vertex 0.59 0.39 0.03
  endloop
 endfacet
 facet normal 0 -1 0
  outer loop
   vertex 0.59 0.39 0.03
   vertex 0.01 0.39 0.4
   vertex 0.01 0.39 0.03
  endloop
 endfacet
 facet normal 1 0 0
  outer loop
   vertex 0.01 0.39 0.4
   vertex 0.01 0.01 0.4
   vertex 0.01 0.39 0.03
  endloop
 endfacet
 facet normal 1 0 0
  outer loop
   vertex 0.01 0.39 0.03
   vertex 0.01 0.01 0.4
   vertex 0.01 0.01 0.03
  endloop
 endfacet
 facet normal 0 -0 1
  outer loop
   vertex 0.59 0.01 0.42
   vertex 0.59 0.39 0.42
   vertex 0.01 0.01 0.42
  endloop
 endfacet
 facet normal 0 0 1
  outer loop
   vertex 0.01 0.01 0.42
   vertex 0.59 0.39 0.42
   vertex 0.01 0.39 0.42
  endloop
 endfacet
 facet normal -1 0 0
  outer loop
   vertex 0.59 0.01 0.4
   vertex 0.59 0.39 0.4
   vertex 0.59 0.01 0.03
  endloop
 endfacet
 facet normal -1 0 0
  outer loop
   vertex 0.59 0.01 0.03
   vertex 0.59 0.39 0.4
   vertex 0.59 0.39 0.03
  endloop
 endfacet
 facet normal -0 1 0
  outer loop
   vertex 0.01 0.01 0.4
   vertex 0.59 0.01 0.4
   vertex 0.01 0.01 0.03
  endloop
 endfacet
 facet normal 0 1 0
  outer loop
   vertex 0.01 0.01 0.03
   vertex 0.59 0.01 0.4
   vertex 0.59 0.01 0.03
  endloop
 endfacet
 facet normal -0 -0 -1
  outer loop
   vertex 0.59 0.39 0.4
   vertex 0.59 0.01 0.4
   vertex 0.01 0.39 0.4
  endloop
 endfacet
 facet normal 0 0 -1
  outer loop
   vertex 0.01 0.39 0.4
   vertex 0.59 0.01 0.4
   vertex 0.01 0.01 0.4
  endloop
 endfacet
 facet normal 0 -1 0
  outer loop
   vertex 0.01 0.39 0.42
   vertex 0.59 0.39 0.42
   vertex 0.01 0.39 0.79
  endloop
 endfacet
 facet normal 0 -1 0
  outer loop
   vertex 0.01 0.39 0.79
   vertex 0.59 0.39 0.42
   vertex 0.59 0.39 0.79
  endloop
 endfacet
 facet normal 1 0 0
  outer loop
   vertex 0.01 0.01 0.42
   vertex 0.01 0.39 0.42
   vertex 0.01 0.01 0.79
  endloop
 endfacet
 facet normal 1 -0 0
  outer loop
   vertex 0.01 0.01 0.79
   vertex 0.01 0.39 0.42
   vertex 0.01 0.39 0.79
  endloop
 endfacet
 facet normal 0 1 -0
  outer loop
   vertex 0.6 0.4 0.02
   vertex -0.6 0.4 0.02
   vertex 0.6 0.4 1.2
  endloop
 endfacet
 facet normal 0 1 0
  outer loop
   vertex 0.6 0.4 1.2
   vertex -0.6 0.4 0.02
   vertex -0.6 0.4 1.2
  endloop
 endfacet
 facet normal -0 0 1
  outer loop
   vertex -0.59 -0.01 0.03
   vertex -0.59 -0.39 0.03
   vertex -0.01 -0.01 0.03
  endloop
 endfacet
 facet normal 0 0 1
  outer loop
   vertex -0.01 -0.01 0.03
   vertex -0.59 -0.39 0.03
   vertex -0.01 -0.39 0.03
  endloop
 endfacet
 facet normal -0 1 0
  outer loop
   vertex -0.59 -0.39 0.4
   vertex -0.01 -0.39 0.4
   vertex -0.59 -0.39 0.03
  endloop
 endfacet
 facet normal 0 1 0
  outer loop
   vertex -0.59 -0.39 0.03
   vertex -0.01 -0.39 0.4
   vertex -0.01 -0.39 0.03
  endloop
 endfacet
 facet normal -1 0 0
  outer loop
   vertex -0.01 -0.39 0.4
   vertex -0.01 -0.01 0.4
   vertex -0.01 -0.39 0.03
  endloop
 endfacet
 facet normal -1 0 0
  outer loop
   vertex -0.01 -0.39 0.03
   vertex -0.01 -0.01 0.4
   vertex -0.01 -0.01 0.03
  endloop
 endfacet
endsolid patch0
