solid patch0
 facet normal -0 -0 -1
  outer loop
   vertex 0.59 0.39 0.77
   vertex 0.59 0.01 0.77
   vertex 0.01 0.39 0.77
  endloop
 endfacet
 facet normal 0 0 -1
  outer loop
   vertex 0.01 0.39 0.77
   vertex 0.59 0.01 0.77
   vertex 0.01 0.01 0.77
  endloop
 endfacet
 facet normal 0 1 -0
  outer loop
   vertex 0.59 -0.39 0.4
   vertex 0.01 -0.39 0.4
   vertex 0.59 -0.39 0.77
  endloop
 endfacet
 facet normal 0 1 0
  outer loop
   vertex 0.59 -0.39 0.77
   vertex 0.01 -0.39 0.4
   vertex 0.01 -0.39 0.77
  endloop
 endfacet
 facet normal -1 0 0
  outer loop
   vertex 0.59 -0.01 0.4
   vertex 0.59 -0.39 0.4
   vertex 0.59 -0.01 0.77
  endloop
 endfacet
 facet normal -1 -0 0
  outer loop
   vertex 0.59 -0.01 0.77
   vertex 0.59 -0.39 0.4
   vertex 0.59 -0.39 0.77
  endloop
 endfacet
 facet normal 0 -1 0
  outer loop
   vertex -0.59 -0.01 0.4
   vertex -0.01 -0.01 0.4
   vertex -0.59 -0.01 0.77
  endloop
 endfacet
 facet normal 0 -1 0
  outer loop
   vertex -0.59 -0.01 0.77
   vertex -0.01 -0.01 0.4
   vertex -0.01 -0.01 0.77
  endloop
 endfacet
 facet normal 1 0 0
  outer loop
   vertex -0.59 -0.39 0.4
   vertex -0.59 -0.01 0.4
   vertex -0.59 -0.39 0.77
  endloop
 endfacet
 facet normal 1 -0 0
  outer loop
   vertex -0.59 -0.39 0.77
   vertex -0.59 -0.01 0.4
   vertex -0.59 -0.01 0.77
  endloop
 endfacet
 facet normal 0 1 -0
  outer loop
   vertex 0.59 0.01 0.4
   vertex 0.01 0.01 0.4
   vertex 0.59 0.01 0.77
  endloop
 endfacet
 facet normal 0 1 0
  outer loop
   vertex 0.59 0.01 0.77
   vertex 0.01 0.01 0.4
   vertex 0.01 0.01 0.77
  endloop
 endfacet
 facet normal -1 0 0
  outer loop
   vertex 0.59 0.39 0.4
   vertex 0.59 0.01 0.4
   vertex 0.59 0.39 0.77
  endloop
 endfacet
 facet normal -1 -0 0
  outer loop
   vertex 0.59 0.39 0.77
   vertex 0.59 0.01 0.4
   vertex 0.59 0.01 0.77
  endloop
 endfacet
 facet normal 1 0 0
  outer loop
   vertex 0.6 -0.4 -4.47035e-10
   vertex 0.6 0.4 -4.47035e-10
   vertex 0.6 -0.4 1.18
  endloop
 endfacet
 facet normal 1 -0 0
  outer loop
   vertex 0.6 -0.4 1.18
   vertex 0.6 0.4 -4.47035e-10
   vertex 0.6 0.4 1.18
  endloop
 endfacet
 facet normal 0 -1 0
  outer loop
   vertex -0.59 0.39 0.4
   vertex -0.01 0.39 0.4
   vertex -0.59 0.39 0.77
  endloop
 endfacet
 facet normal 0 -1 0
  outer loop
   vertex -0.59 0.39 0.77
   vertex -0.01 0.39 0.4
   vertex -0.01 0.39 0.77
  endloop
 endfacet
 facet normal 1 0 0
  outer loop
   vertex -0.59 0.01 0.4
   vertex -0.59 0.39 0.4
   vertex -0.59 0.01 0.77
  endloop
 endfacet
 facet normal 1 -0 0
  outer loop
   vertex -0.59 0.01 0.77
   vertex -0.59 0.39 0.4
   vertex -0.59 0.39 0.77
  endloop
 endfacet
 facet normal 0 0 -1
  outer loop
   vertex -0.59 -0.39 0.38
   vertex -0.59 -0.01 0.38
   vertex -0.01 -0.39 0.38
  endloop
 endfacet
 facet normal 0 0 -1
  outer loop
   vertex -0.01 -0.39 0.38
   vertex -0.59 -0.01 0.38
   vertex -0.01 -0.01 0.38
  endloop
 endfacet
 facet normal -0 -1 -0
  outer loop
   vertex 0.6 -0.4 1.18
   vertex -0.6 -0.4 1.18
   vertex 0.6 -0.4 -4.47035e-10
  endloop
 endfacet
 facet normal 0 -1 0
  outer loop
   vertex 0.6 -0.4 -4.47035e-10
   vertex -0.6 -0.4 1.18
   vertex -0.6 -0.4 -4.47035e-10
  endloop
 endfacet
 facet normal 0 0 -1
  outer loop
   vertex -0.59 0.01 0.77
   vertex -0.59 0.39 0.77
   vertex -0.01 0.01 0.77
  endloop
 endfacet
 facet normal 0 0 -1
  outer loop
   vertex -0.01 0.01 0.77
   vertex -0.59 0.39 0.77
   vertex -0.01 0.39 0.77
  endloop
 endfacet
 facet normal 1 0 0
  outer loop
   vertex 0.01 -0.39 0.4
   vertex 0.01 -0.01 0.4
   vertex 0.01 -0.39 0.77
  endloop
 endfacet
 facet normal 1 -0 0
  outer loop
   vertex 0.01 -0.39 0.77
   vertex 0.01 -0.01 0.4
   vertex 0.01 -0.01 0.77
  endloop
 endfacet
 facet normal 0 -1 0
  outer loop
   vertex 0.01 -0.01 0.4
   vertex 0.59 -0.01 0.4
   vertex 0.01 -0.01 0.77
  endloop
 endfacet
 facet normal 0 -1 0
  outer loop
   vertex 0.01 -0.01 0.77
   vertex 0.59 -0.01 0.4
   vertex 0.59 -0.01 0.77
  endloop
 endfacet
 facet normal -0 1 0
  outer loop
   vertex 0.01 -0.39 0.38
   vertex 0.59 -0.39 0.38
   vertex 0.01 -0.39 0.01
  endloop
 endfacet
 facet normal 0 1 0
  outer loop
   vertex 0.01 -0.39 0.01
   vertex 0.59 -0.39 0.38
   vertex 0.59 -0.39 0.01
  endloop
 endfacet
 facet normal -1 0 0
  outer loop
   vertex 0.59 -0.39 0.38
   vertex 0.59 -0.01 0.38
   vertex 0.59 -0.39 0.01
  endloop
 endfacet
 facet normal -1 0 0
  outer loop
   vertex 0.59 -0.39 0.01
   vertex 0.59 -0.01 0.38
   vertex 0.59 -0.01 0.01
  endloop
 endfacet
 facet normal 0 -0 1
  outer loop
   vertex 0.59 -0.39 0.4
   vertex 0.59 -0.01 0.4
   vertex 0.01 -0.39 0.4
  endloop
 endfacet
 facet normal 0 0 1
  outer loop
   vertex 0.01 -0.39 0.4
   vertex 0.59 -0.01 0.4
   vertex 0.01 -0.01 0.4
  endloop
 endfacet
 facet normal 0 0 -1
  outer loop
   vertex -0.59 -0.39 0.77
   vertex -0.59 -0.01 0.77
   vertex -0.01 -0.39 0.77
  endloop
 endfacet
 facet normal 0 0 -1
  outer loop
   vertex -0.01 -0.39 0.77
   vertex -0.59 -0.01 0.77
   vertex -0.01 -0.01 0.77
  endloop
 endfacet
 facet normal -0 -1 -0
  outer loop
   vertex 0.59 -0.01 0.38
   vertex 0.01 -0.01 0.38
   vertex 0.59 -0.01 0.01
  endloop
 endfacet
 facet normal 0 -1 0
  outer loop
   vertex 0.59 -0.01 0.01
   vertex 0.01 -0.01 0.38
   vertex 0.01 -0.01 0.01
  endloop
 endfacet
 facet normal 1 0 0
  outer loop
   vertex 0.01 -0.01 0.38
   vertex 0.01 -0.39 0.38
   vertex 0.01 -0.01 0.01
  endloop
 endfacet
 facet normal 1 0 0
  outer loop
   vertex 0.01 -0.01 0.01
   vertex 0.01 -0.39 0.38
   vertex 0.01 -0.39 0.01
  endloop
 endfacet
 facet normal 0 -0 1
  outer loop
   vertex 0.59 -0.39 0.01
   vertex 0.59 -0.01 0.01
   vertex 0.01 -0.39 0.01
  endloop
 endfacet
 facet normal 0 0 1
  outer loop
   vertex 0.01 -0.39 0.01
   vertex 0.59 -0.01 0.01
   vertex 0.01 -0.01 0.01
  endloop
 endfacet
 facet normal -0 -0 -1
  outer loop
   vertex 0.59 -0.01 1.17
   vertex 0.59 -0.39 1.17
   vertex 0.01 -0.01 1.17
  endloop
 endfacet
 facet normal 0 0 -1
  outer loop
   vertex 0.01 -0.01 1.17
   vertex 0.59 -0.39 1.17
   vertex 0.01 -0.39 1.17
  endloop
 endfacet
 facet normal -1 0 0
  outer loop
   vertex -0.01 -0.01 0.4
   vertex -0.01 -0.39 0.4
   vertex -0.01 -0.01 0.77
  endloop
 endfacet
 facet normal -1 -0 0
  outer loop
   vertex -0.01 -0.01 0.77
   vertex -0.01 -0.39 0.4
   vertex -0.01 -0.39 0.77
  endloop
 endfacet
 facet normal 0 1 -0
  outer loop
   vertex -0.01 -0.39 0.4
   vertex -0.59 -0.39 0.4
   vertex -0.01 -0.39 0.77
  endloop
 endfacet
 facet normal 0 1 0
  outer loop
   vertex -0.01 -0.39 0.77
   vertex -0.59 -0.39 0.4
   vertex -0.59 -0.39 0.77
  endloop
 endfacet
 facet normal -0 -0 -1
  outer loop
   vertex 0.59 -0.01 0.77
   vertex 0.59 -0.39 0.77
   vertex 0.01 -0.01 0.77
  endloop
 endfacet
 facet normal 0 0 -1
  outer loop
   vertex 0.01 -0.01 0.77
   vertex 0.59 -0.39 0.77
   vertex 0.01 -0.39 0.77
  endloop
 endfacet
 facet normal -0 -0 -1
  outer loop
   vertex 0.59 -0.01 0.38
   vertex 0.59 -0.39 0.38
   vertex 0.01 -0.01 0.38
  endloop
 endfacet
 facet normal 0 0 -1
  outer loop
   vertex 0.01 -0.01 0.38
   vertex 0.59 -0.39 0.38
   vertex 0.01 -0.39 0.38
  endloop
 endfacet
 facet normal -0 -1 -0
  outer loop
   vertex -0.01 -0.01 0.38
   vertex -0.59 -0.01 0.38
   vertex -0.01 -0.01 0.01
  endloop
 endfacet
 facet normal 0 -1 0
  outer loop
   vertex -0.01 -0.01 0.01
   vertex -0.59 -0.01 0.38
   vertex -0.59 -0.01 0.01
  endloop
 endfacet
 facet normal 1 0 0
  outer loop
   vertex -0.59 -0.01 0.38
   vertex -0.59 -0.39 0.38
   vertex -0.59 -0.01 0.01
  endloop
 endfacet
 facet normal 1 0 0
  outer loop
   vertex -0.59 -0.01 0.01
   vertex -0.59 -0.39 0.38
   vertex -0.59 -0.39 0.01
  endloop
 endfacet
 facet normal -0 0 1
  outer loop
   vertex -0.59 -0.01 0.4
   vertex -0.59 -0.39 0.4
   vertex -0.01 -0.01 0.4
  endloop
 endfacet
 facet normal 0 0 1
  outer loop
   vertex -0.01 -0.01 0.4
   vertex -0.59 -0.39 0.4
   vertex -0.01 -0.39 0.4
  endloop
 endfacet
 facet normal -0 0 1
  outer loop
   vertex -0.59 0.39 0.79
   vertex -0.59 0.01 0.79
   vertex -0.01 0.39 0.79
  endloop
 endfacet
 facet normal 0 0 1
  outer loop
   vertex -0.01 0.39 0.79
   vertex -0.59 0.01 0.79
   vertex -0.01 0.01 0.79
  endloop
 endfacet
 facet normal 0 -0 1
  outer loop
   vertex 0.6 -0.4 1.18
   vertex 0.6 0.4 1.18
   vertex -0.6 -0.4 1.18
  endloop
 endfacet
 facet normal 0 0 1
  outer loop
   vertex -0.6 -0.4 1.18
   vertex 0.6 0.4 1.18
   vertex -0.6 0.4 1.18
  endloop
 endfacet
 facet normal 1 0 0
  outer loop
   vertex -0.59 0.39 1.17
   vertex -0.59 0.01 1.17
   vertex -0.59 0.39 0.79
  endloop
 endfacet
 facet normal 1 0 0
  outer loop
   vertex -0.59 0.39 0.79
   vertex -0.59 0.01 1.17
   vertex -0.59 0.01 0.79
  endloop
 endfacet
 facet normal -0 -1 -0
  outer loop
   vertex -0.01 0.39 1.17
   vertex -0.59 0.39 1.17
   vertex -0.01 0.39 0.79
  endloop
 endfacet
 facet normal 0 -1 0
  outer loop
   vertex -0.01 0.39 0.79
   vertex -0.59 0.39 1.17
   vertex -0.59 0.39 0.79
  endloop
 endfacet
 facet normal -1 0 0
  outer loop
   vertex -0.01 0.01 1.17
   vertex -0.01 0.39 1.17
   vertex -0.01 0.01 0.79
  endloop
 endfacet
 facet normal -1 0 0
  outer loop
   vertex -0.01 0.01 0.79
   vertex -0.01 0.39 1.17
   vertex -0.01 0.39 0.79
  endloop
 endfacet
 facet normal -0 1 0
  outer loop
   vertex -0.59 0.01 1.17
   vertex -0.01 0.01 1.17
   vertex -0.59 0.01 0.79
  endloop
 endfacet
 facet normal 0 1 0
  outer loop
   vertex -0.59 0.01 0.79
   vertex -0.01 0.01 1.17
   vertex -0.01 0.01 0.79
  endloop
 endfacet
 facet normal 0 0 -1
  outer loop
   vertex -0.59 0.01 1.17
   vertex -0.59 0.39 1.17
   vertex -0.01 0.01 1.17
  endloop
 endfacet
 facet normal 0 0 -1
  outer loop
   vertex -0.01 0.01 1.17
   vertex -0.59 0.39 1.17
   vertex -0.01 0.39 1.17
  endloop
 endfacet
 facet normal 0 -0 1
  outer loop
   vertex 0.59 0.01 0.79
   vertex 0.59 0.39 0.79
   vertex 0.01 0.01 0.79
  endloop
 endfacet
 facet normal 0 0 1
  outer loop
   vertex 0.01 0.01 0.79
   vertex 0.59 0.39 0.79
   vertex 0.01 0.39 0.79
  endloop
 endfacet
 facet normal -1 0 0
  outer loop
   vertex 0.59 0.01 1.17
   vertex 0.59 0.39 1.17
   vertex 0.59 0.01 0.79
  endloop
 endfacet
 facet normal -1 0 0
  outer loop
   vertex 0.59 0.01 0.79
   vertex 0.59 0.39 1.17
   vertex 0.59 0.39 0.79
  endloop
 endfacet
 facet normal -0 -1 -0
  outer loop
   vertex 0.59 0.39 1.17
   vertex 0.01 0.39 1.17
   vertex 0.59 0.39 0.79
  endloop
 endfacet
 facet normal 0 -1 0
  outer loop
   vertex 0.59 0.39 0.79
   vertex 0.01 0.39 1.17
   vertex 0.01 0.39 0.79
  endloop
 endfacet
 facet normal 1 0 0
  outer loop
   vertex 0.01 0.39 1.17
   vertex 0.01 0.01 1.17
   vertex 0.01 0.39 0.79
  endloop
 endfacet
 facet normal 1 0 0
  outer loop
   vertex 0.01 0.39 0.79
   vertex 0.01 0.01 1.17
   vertex 0.01 0.01 0.79
  endloop
 endfacet
 facet normal -0 1 0
  outer loop
   vertex 0.01 0.01 1.17
   vertex 0.59 0.01 1.17
   vertex 0.01 0.01 0.79
  endloop
 endfacet
 facet normal 0 1 0
  outer loop
   vertex 0.01 0.01 0.79
   vertex 0.59 0.01 1.17
   vertex 0.59 0.01 0.79
  endloop
 endfacet
 facet normal -0 -0 -1
  outer loop
   vertex 0.59 0.39 1.17
   vertex 0.59 0.01 1.17
   vertex 0.01 0.39 1.17
  endloop
 endfacet
 facet normal 0 0 -1
  outer loop
   vertex 0.01 0.39 1.17
   vertex 0.59 0.01 1.17
   vertex 0.01 0.01 1.17
  endloop
 endfacet
 facet normal -0 0 1
  outer loop
   vertex -0.59 -0.01 0.79
   vertex -0.59 -0.39 0.79
   vertex -0.01 -0.01 0.79
  endloop
 endfacet
 facet normal 0 0 1
  outer loop
   vertex -0.01 -0.01 0.79
   vertex -0.59 -0.39 0.79
   vertex -0.01 -0.39 0.79
  endloop
 endfacet
 facet normal 1 0 0
  outer loop
   vertex -0.59 -0.01 1.17
   vertex -0.59 -0.39 1.17
   vertex -0.59 -0.01 0.79
  endloop
 endfacet
 facet normal 1 0 0
  outer loop
   vertex -0.59 -0.01 0.79
   vertex -0.59 -0.39 1.17
   vertex -0.59 -0.39 0.79
  endloop
 endfacet
 facet normal -0 1 0
  outer loop
   vertex -0.59 -0.39 1.17
   vertex -0.01 -0.39 1.17
   vertex -0.59 -0.39 0.79
  endloop
 endfacet
 facet normal 0 1 0
  outer loop
   vertex -0.59 -0.39 0.79
   vertex -0.01 -0.39 1.17
   vertex -0.01 -0.39 0.79
  endloop
 endfacet
 facet normal -1 0 0
  outer loop
   vertex -0.01 -0.39 1.17
   vertex -0.01 -0.01 1.17
   vertex -0.01 -0.39 0.79
  endloop
 endfacet
 facet normal -1 0 0
  outer loop
   vertex -0.01 -0.39 0.79
   vertex -0.01 -0.01 1.17
   vertex -0.01 -0.01 0.79
  endloop
 endfacet
 facet normal -0 -1 -0
  outer loop
   vertex -0.01 -0.01 1.17
   vertex -0.59 -0.01 1.17
   vertex -0.01 -0.01 0.79
  endloop
 endfacet
 facet normal 0 -1 0
  outer loop
   vertex -0.01 -0.01 0.79
   vertex -0.59 -0.01 1.17
   vertex -0.59 -0.01 0.79
  endloop
 endfacet
 facet normal 0 0 -1
  outer loop
   vertex -0.59 -0.39 1.17
   vertex -0.59 -0.01 1.17
   vertex -0.01 -0.39 1.17
  endloop
 endfacet
 facet normal 0 0 -1
  outer loop
   vertex -0.01 -0.39 1.17
   vertex -0.59 -0.01 1.17
   vertex -0.01 -0.01 1.17
  endloop
 endfacet
 facet normal 0 -0 1
  outer loop
   vertex 0.59 -0.39 0.79
   vertex 0.59 -0.01 0.79
   vertex 0.01 -0.39 0.79
  endloop
 endfacet
 facet normal 0 0 1
  outer loop
   vertex 0.01 -0.39 0.79
   vertex 0.59 -0.01 0.79
   vertex 0.01 -0.01 0.79
  endloop
 endfacet
 facet normal -1 0 0
  outer loop
   vertex 0.59 -0.39 1.17
   vertex 0.59 -0.01 1.17
   vertex 0.59 -0.39 0.79
  endloop
 endfacet
 facet normal -1 0 0
  outer loop
   vertex 0.59 -0.39 0.79
   vertex 0.59 -0.01 1.17
   vertex 0.59 -0.01 0.79
  endloop
 endfacet
 facet normal -0 1 0
  outer loop
   vertex 0.01 -0.39 1.17
   vertex 0.59 -0.39 1.17
   vertex 0.01 -0.39 0.79
  endloop
 endfacet
 facet normal 0 1 0
  outer loop
   vertex 0.01 -0.39 0.79
   vertex 0.59 -0.39 1.17
   vertex 0.59 -0.39 0.79
  endloop
 endfacet
 facet normal 1 0 0
  outer loop
   vertex 0.01 -0.01 1.17
   vertex 0.01 -0.39 1.17
   vertex 0.01 -0.01 0.79
  endloop
 endfacet
 facet normal 1 0 0
  outer loop
   vertex 0.01 -0.01 0.79
   vertex 0.01 -0.39 1.17
   vertex 0.01 -0.39 0.79
  endloop
 endfacet
 facet normal -0 -1 -0
  outer loop
   vertex 0.59 -0.01 1.17
   vertex 0.01 -0.01 1.17
   vertex 0.59 -0.01 0.79
  endloop
 endfacet
 facet normal 0 -1 0
  outer loop
   vertex 0.59 -0.01 0.79
   vertex 0.01 -0.01 1.17
   vertex 0.01 -0.01 0.79
  endloop
 endfacet
 facet normal -0 0 1
  outer loop
   vertex -0.59 0.39 0.01
   vertex -0.59 0.01 0.01
   vertex -0.01 0.39 0.01
  endloop
 endfacet
 facet normal 0 0 1
  outer loop
   vertex -0.01 0.39 0.01
   vertex -0.59 0.01 0.01
   vertex -0.01 0.01 0.01
  endloop
 endfacet
 facet normal -1 0 0
  outer loop
   vertex -0.01 0.01 0.38
   vertex -0.01 0.39 0.38
   vertex -0.01 0.01 0.01
  endloop
 endfacet
 facet normal -1 0 0
  outer loop
   vertex -0.01 0.01 0.01
   vertex -0.01 0.39 0.38
   vertex -0.01 0.39 0.01
  endloop
 endfacet
 facet normal -0 1 0
  outer loop
   vertex -0.59 0.01 0.38
   vertex -0.01 0.01 0.38
   vertex -0.59 0.01 0.01
  endloop
 endfacet
 facet normal 0 1 0
  outer loop
   vertex -0.59 0.01 0.01
   vertex -0.01 0.01 0.38
   vertex -0.01 0.01 0.01
  endloop
 endfacet
 facet normal 0 0 -1
  outer loop
   vertex -0.6 -0.4 -4.47035e-10
   vertex -0.6 0.4 -4.47035e-10
   vertex 0.6 -0.4 -4.47035e-10
  endloop
 endfacet
 facet normal 0 0 -1
  outer loop
   vertex 0.6 -0.4 -4.47035e-10
   vertex -0.6 0.4 -4.47035e-10
   vertex 0.6 0.4 -4.47035e-10
  endloop
 endfacet
 facet normal -0 0 1
  outer loop
   vertex -0.59 0.39 0.4
   vertex -0.59 0.01 0.4
   vertex -0.01 0.39 0.4
  endloop
 endfacet
 facet normal 0 0 1
  outer loop
   vertex -0.01 0.39 0.4
   vertex -0.59 0.01 0.4
   vertex -0.01 0.01 0.4
  endloop
 endfacet
 facet normal 1 0 0
  outer loop
   vertex -0.59 0.39 0.38
   vertex -0.59 0.01 0.38
   vertex -0.59 0.39 0.01
  endloop
 endfacet
 facet normal 1 0 0
  outer loop
   vertex -0.59 0.39 0.01
   vertex -0.59 0.01 0.38
   vertex -0.59 0.01 0.01
  endloop
 endfacet
 facet normal -0 -1 -0
  outer loop
   vertex -0.01 0.39 0.38
   vertex -0.59 0.39 0.38
   vertex -0.01 0.39 0.01
  endloop
 endfacet
 facet normal 0 -1 0
  outer loop
   vertex -0.01 0.39 0.01
   vertex -0.59 0.39 0.38
   vertex -0.59 0.39 0.01
  endloop
 endfacet
 facet normal 0 0 -1
  outer loop
   vertex -0.59 0.01 0.38
   vertex -0.59 0.39 0.38
   vertex -0.01 0.01 0.38
  endloop
 endfacet
 facet normal 0 0 -1
  outer loop
   vertex -0.01 0.01 0.38
   vertex -0.59 0.39 0.38
   vertex -0.01 0.39 0.38
  endloop
 endfacet
 facet normal 0 1 -0
  outer loop
   vertex -0.01 0.01 0.4
   vertex -0.59 0.01 0.4
   vertex -0.01 0.01 0.77
  endloop
 endfacet
 facet normal 0 1 0
  outer loop
   vertex -0.01 0.01 0.77
   vertex -0.59 0.01 0.4
   vertex -0.59 0.01 0.77
  endloop
 endfacet
 facet normal -1 0 0
  outer loop
   vertex -0.01 0.39 0.4
   vertex -0.01 0.01 0.4
   vertex -0.01 0.39 0.77
  endloop
 endfacet
 facet normal -1 -0 0
  outer loop
   vertex -0.01 0.39 0.77
   vertex -0.01 0.01 0.4
   vertex -0.01 0.01 0.77
  endloop
 endfacet
 facet normal -1 0 0
  outer loop
   vertex -0.6 -0.4 1.18
   vertex -0.6 0.4 1.18
   vertex -0.6 -0.4 -4.47035e-10
  endloop
 endfacet
 facet normal -1 0 0
  outer loop
   vertex -0.6 -0.4 -4.47035e-10
   vertex -0.6 0.4 1.18
   vertex -0.6 0.4 -4.47035e-10
  endloop
 endfacet
 facet normal 0 -0 1
  outer loop
   vertex 0.59 0.01 0.01
   vertex 0.59 0.39 0.01
   vertex 0.01 0.01 0.01
  endloop
 endfacet
 facet normal 0 0 1
  outer loop
   vertex 0.01 0.01 0.01
   vertex 0.59 0.39 0.01
   vertex 0.01 0.39 0.01
  endloop
 endfacet
 facet normal -0 -1 -0
  outer loop
   vertex 0.59 0.39 0.38
   vertex 0.01 0.39 0.38
   vertex 0.59 0.39 0.01
  endloop
 endfacet
 facet normal 0 -1 0
  outer loop
   vertex 0.59 0.39 0.01
   vertex 0.01 0.39 0.38
   vertex 0.01 0.39 0.01
  endloop
 endfacet
 facet normal 1 0 0
  outer loop
   vertex 0.01 0.39 0.38
   vertex 0.01 0.01 0.38
   vertex 0.01 0.39 0.01
  endloop
 endfacet
 facet normal 1 0 0
  outer loop
   vertex 0.01 0.39 0.01
   vertex 0.01 0.01 0.38
   vertex 0.01 0.01 0.01
  endloop
 endfacet
 facet normal 0 -0 1
  outer loop
   vertex 0.59 0.01 0.4
   vertex 0.59 0.39 0.4
   vertex 0.01 0.01 0.4
  endloop
 endfacet
 facet normal 0 0 1
  outer loop
   vertex 0.01 0.01 0.4
   vertex 0.59 0.39 0.4
   vertex 0.01 0.39 0.4
  endloop
 endfacet
 facet normal -1 0 0
  outer loop
   vertex 0.59 0.01 0.38
   vertex 0.59 0.39 0.38
   vertex 0.59 0.01 0.01
  endloop
 endfacet
 facet normal -1 0 0
  outer loop
   vertex 0.59 0.01 0.01
   vertex 0.59 0.39 0.38
   vertex 0.59 0.39 0.01
  endloop
 endfacet
 facet normal -0 1 0
  outer loop
   vertex 0.01 0.01 0.38
   vertex 0.59 0.01 0.38
   vertex 0.01 0.01 0.01
  endloop
 endfacet
 facet normal 0 1 0
  outer loop
   vertex 0.01 0.01 0.01
   vertex 0.59 0.01 0.38
   vertex 0.59 0.01 0.01
  endloop
 endfacet
 facet normal -0 -0 -1
  outer loop
   vertex 0.59 0.39 0.38
   vertex 0.59 0.01 0.38
   vertex 0.01 0.39 0.38
  endloop
 endfacet
 facet normal 0 0 -1
  outer loop
   vertex 0.01 0.39 0.38
   vertex 0.59 0.01 0.38
   vertex 0.01 0.01 0.38
  endloop
 endfacet
 facet normal 0 -1 0
  outer loop
   vertex 0.01 0.39 0.4
   vertex 0.59 0.39 0.4
   vertex 0.01 0.39 0.77
  endloop
 endfacet
 facet normal 0 -1 0
  outer loop
   vertex 0.01 0.39 0.77
   vertex 0.59 0.39 0.4
   vertex 0.59 0.39 0.77
  endloop
 endfacet
 facet normal 1 0 0
  outer loop
   vertex 0.01 0.01 0.4
   vertex 0.01 0.39 0.4
   vertex 0.01 0.01 0.77
  endloop
 endfacet
 facet normal 1 -0 0
  outer loop
   vertex 0.01 0.01 0.77
   vertex 0.01 0.39 0.4
   vertex 0.01 0.39 0.77
  endloop
 endfacet
 facet normal 0 1 -0
  outer loop
   vertex 0.6 0.4 -4.47035e-10
   vertex -0.6 0.4 -4.47035e-10
   vertex 0.6 0.4 1.18
  endloop
 endfacet
 facet normal 0 1 0
  outer loop
   vertex 0.6 0.4 1.18
   vertex -0.6 0.4 -4.47035e-10
   vertex -0.6 0.4 1.18
  endloop
 endfacet
 facet normal -0 0 1
  outer loop
   vertex -0.59 -0.01 0.01
   vertex -0.59 -0.39 0.01
   vertex -0.01 -0.01 0.01
  endloop
 endfacet
 facet normal 0 0 1
  outer loop
   vertex -0.01 -0.01 0.01
   vertex -0.59 -0.39 0.01
   vertex -0.01 -0.39 0.01
  endloop
 endfacet
 facet normal -0 1 0
  outer loop
   vertex -0.59 -0.39 0.38
   vertex -0.01 -0.39 0.38
   vertex -0.59 -0.39 0.01
  endloop
 endfacet
 facet normal 0 1 0
  outer loop
   vertex -0.59 -0.39 0.01
   vertex -0.01 -0.39 0.38
   vertex -0.01 -0.39 0.01
  endloop
 endfacet
 facet normal -1 0 0
  outer loop
   vertex -0.01 -0.39 0.38
   vertex -0.01 -0.01 0.38
   vertex -0.01 -0.39 0.01
  endloop
 endfacet
 facet normal -1 0 0
  outer loop
   vertex -0.01 -0.39 0.01
   vertex -0.01 -0.01 0.38
   vertex -0.01 -0.01 0.01
  endloop
 endfacet
endsolid patch0
