solid zone0
 facet normal -1 0 0
  outer loop
   vertex 0.801 -0.0805 0.544
   vertex 0.801 -0.5805 0.544
   vertex 0.801 -0.0805 0.944
  endloop
 endfacet
 facet normal -1 -0 0
  outer loop
   vertex 0.801 -0.0805 0.944
   vertex 0.801 -0.5805 0.544
   vertex 0.801 -0.5805 0.944
  endloop
 endfacet
 facet normal 0 1 -0
  outer loop
   vertex 1.401 -0.0805 0.544
   vertex 0.801 -0.0805 0.544
   vertex 1.401 -0.0805 0.944
  endloop
 endfacet
 facet normal 0 1 0
  outer loop
   vertex 1.401 -0.0805 0.944
   vertex 0.801 -0.0805 0.544
   vertex 0.801 -0.0805 0.944
  endloop
 endfacet
 facet normal 1 0 0
  outer loop
   vertex 1.401 -0.5805 0.544
   vertex 1.401 -0.0805 0.544
   vertex 1.401 -0.5805 0.944
  endloop
 endfacet
 facet normal 1 -0 0
  outer loop
   vertex 1.401 -0.5805 0.944
   vertex 1.401 -0.0805 0.544
   vertex 1.401 -0.0805 0.944
  endloop
 endfacet
 facet normal 0 -1 0
  outer loop
   vertex 0.801 -0.5805 0.544
   vertex 1.401 -0.5805 0.544
   vertex 0.801 -0.5805 0.944
  endloop
 endfacet
 facet normal 0 -1 0
  outer loop
   vertex 0.801 -0.5805 0.944
   vertex 1.401 -0.5805 0.544
   vertex 1.401 -0.5805 0.944
  endloop
 endfacet
 facet normal 0 0 1
  outer loop
   vertex 0.801 -0.5805 0.944
   vertex 1.401 -0.5805 0.944
   vertex 0.801 -0.0805 0.944
  endloop
 endfacet
 facet normal -0 0 1
  outer loop
   vertex 0.801 -0.0805 0.944
   vertex 1.401 -0.5805 0.944
   vertex 1.401 -0.0805 0.944
  endloop
 endfacet
 facet normal 0 0 -1
  outer loop
   vertex 1.401 -0.5805 0.544
   vertex 0.801 -0.5805 0.544
   vertex 1.401 -0.0805 0.544
  endloop
 endfacet
 facet normal -0 0 -1
  outer loop
   vertex 1.401 -0.0805 0.544
   vertex 0.801 -0.5805 0.544
   vertex 0.801 -0.0805 0.544
  endloop
 endfacet
 facet normal -1 0 0
  outer loop
   vertex 0.201 -0.0805 0.544
   vertex 0.201 -0.5805 0.544
   vertex 0.201 -0.0805 0.944
  endloop
 endfacet
 facet normal -1 -0 0
  outer loop
   vertex 0.201 -0.0805 0.944
   vertex 0.201 -0.5805 0.544
   vertex 0.201 -0.5805 0.944
  endloop
 endfacet
 facet normal 0 1 -0
  outer loop
   vertex 0.801 -0.0805 0.544
   vertex 0.201 -0.0805 0.544
   vertex 0.801 -0.0805 0.944
  endloop
 endfacet
 facet normal 0 1 0
  outer loop
   vertex 0.801 -0.0805 0.944
   vertex 0.201 -0.0805 0.544
   vertex 0.201 -0.0805 0.944
  endloop
 endfacet
 facet normal 1 0 0
  outer loop
   vertex 0.801 -0.5805 0.544
   vertex 0.801 -0.0805 0.544
   vertex 0.801 -0.5805 0.944
  endloop
 endfacet
 facet normal 1 -0 0
  outer loop
   vertex 0.801 -0.5805 0.944
   vertex 0.801 -0.0805 0.544
   vertex 0.801 -0.0805 0.944
  endloop
 endfacet
 facet normal 0 -1 0
  outer loop
   vertex 0.201 -0.5805 0.544
   vertex 0.801 -0.5805 0.544
   vertex 0.201 -0.5805 0.944
  endloop
 endfacet
 facet normal 0 -1 0
  outer loop
   vertex 0.201 -0.5805 0.944
   vertex 0.801 -0.5805 0.544
   vertex 0.801 -0.5805 0.944
  endloop
 endfacet
 facet normal 0 0 1
  outer loop
   vertex 0.201 -0.5805 0.944
   vertex 0.801 -0.5805 0.944
   vertex 0.201 -0.0805 0.944
  endloop
 endfacet
 facet normal -0 0 1
  outer loop
   vertex 0.201 -0.0805 0.944
   vertex 0.801 -0.5805 0.944
   vertex 0.801 -0.0805 0.944
  endloop
 endfacet
 facet normal 0 0 -1
  outer loop
   vertex 0.801 -0.5805 0.544
   vertex 0.201 -0.5805 0.544
   vertex 0.801 -0.0805 0.544
  endloop
 endfacet
 facet normal -0 0 -1
  outer loop
   vertex 0.801 -0.0805 0.544
   vertex 0.201 -0.5805 0.544
   vertex 0.201 -0.0805 0.544
  endloop
 endfacet
 facet normal -1 0 0
  outer loop
   vertex 0.801 -0.5805 0.544
   vertex 0.801 -1.0805 0.544
   vertex 0.801 -0.5805 0.944
  endloop
 endfacet
 facet normal -1 -0 0
  outer loop
   vertex 0.801 -0.5805 0.944
   vertex 0.801 -1.0805 0.544
   vertex 0.801 -1.0805 0.944
  endloop
 endfacet
 facet normal 0 1 -0
  outer loop
   vertex 1.401 -0.5805 0.544
   vertex 0.801 -0.5805 0.544
   vertex 1.401 -0.5805 0.944
  endloop
 endfacet
 facet normal 0 1 0
  outer loop
   vertex 1.401 -0.5805 0.944
   vertex 0.801 -0.5805 0.544
   vertex 0.801 -0.5805 0.944
  endloop
 endfacet
 facet normal 1 0 0
  outer loop
   vertex 1.401 -1.0805 0.544
   vertex 1.401 -0.5805 0.544
   vertex 1.401 -1.0805 0.944
  endloop
 endfacet
 facet normal 1 -0 0
  outer loop
   vertex 1.401 -1.0805 0.944
   vertex 1.401 -0.5805 0.544
   vertex 1.401 -0.5805 0.944
  endloop
 endfacet
 facet normal 0 -1 0
  outer loop
   vertex 0.801 -1.0805 0.544
   vertex 1.401 -1.0805 0.544
   vertex 0.801 -1.0805 0.944
  endloop
 endfacet
 facet normal 0 -1 0
  outer loop
   vertex 0.801 -1.0805 0.944
   vertex 1.401 -1.0805 0.544
   vertex 1.401 -1.0805 0.944
  endloop
 endfacet
 facet normal 0 0 1
  outer loop
   vertex 0.801 -1.0805 0.944
   vertex 1.401 -1.0805 0.944
   vertex 0.801 -0.5805 0.944
  endloop
 endfacet
 facet normal -0 0 1
  outer loop
   vertex 0.801 -0.5805 0.944
   vertex 1.401 -1.0805 0.944
   vertex 1.401 -0.5805 0.944
  endloop
 endfacet
 facet normal 0 0 -1
  outer loop
   vertex 1.401 -1.0805 0.544
   vertex 0.801 -1.0805 0.544
   vertex 1.401 -0.5805 0.544
  endloop
 endfacet
 facet normal -0 0 -1
  outer loop
   vertex 1.401 -0.5805 0.544
   vertex 0.801 -1.0805 0.544
   vertex 0.801 -0.5805 0.544
  endloop
 endfacet
 facet normal -1 0 0
  outer loop
   vertex 0.201 -0.5805 0.544
   vertex 0.201 -1.0805 0.544
   vertex 0.201 -0.5805 0.944
  endloop
 endfacet
 facet normal -1 -0 0
  outer loop
   vertex 0.201 -0.5805 0.944
   vertex 0.201 -1.0805 0.544
   vertex 0.201 -1.0805 0.944
  endloop
 endfacet
 facet normal 0 1 -0
  outer loop
   vertex 0.801 -0.5805 0.544
   vertex 0.201 -0.5805 0.544
   vertex 0.801 -0.5805 0.944
  endloop
 endfacet
 facet normal 0 1 0
  outer loop
   vertex 0.801 -0.5805 0.944
   vertex 0.201 -0.5805 0.544
   vertex 0.201 -0.5805 0.944
  endloop
 endfacet
 facet normal 1 0 0
  outer loop
   vertex 0.801 -1.0805 0.544
   vertex 0.801 -0.5805 0.544
   vertex 0.801 -1.0805 0.944
  endloop
 endfacet
 facet normal 1 -0 0
  outer loop
   vertex 0.801 -1.0805 0.944
   vertex 0.801 -0.5805 0.544
   vertex 0.801 -0.5805 0.944
  endloop
 endfacet
 facet normal 0 -1 0
  outer loop
   vertex 0.201 -1.0805 0.544
   vertex 0.801 -1.0805 0.544
   vertex 0.201 -1.0805 0.944
  endloop
 endfacet
 facet normal 0 -1 0
  outer loop
   vertex 0.201 -1.0805 0.944
   vertex 0.801 -1.0805 0.544
   vertex 0.801 -1.0805 0.944
  endloop
 endfacet
 facet normal 0 0 1
  outer loop
   vertex 0.201 -1.0805 0.944
   vertex 0.801 -1.0805 0.944
   vertex 0.201 -0.5805 0.944
  endloop
 endfacet
 facet normal -0 0 1
  outer loop
   vertex 0.201 -0.5805 0.944
   vertex 0.801 -1.0805 0.944
   vertex 0.801 -0.5805 0.944
  endloop
 endfacet
 facet normal 0 0 -1
  outer loop
   vertex 0.801 -1.0805 0.544
   vertex 0.201 -1.0805 0.544
   vertex 0.801 -0.5805 0.544
  endloop
 endfacet
 facet normal -0 0 -1
  outer loop
   vertex 0.801 -0.5805 0.544
   vertex 0.201 -1.0805 0.544
   vertex 0.201 -0.5805 0.544
  endloop
 endfacet
 facet normal -1 0 0
  outer loop
   vertex 0.801 -0.0805 0.144
   vertex 0.801 -0.5805 0.144
   vertex 0.801 -0.0805 0.544
  endloop
 endfacet
 facet normal -1 -0 0
  outer loop
   vertex 0.801 -0.0805 0.544
   vertex 0.801 -0.5805 0.144
   vertex 0.801 -0.5805 0.544
  endloop
 endfacet
 facet normal 0 1 -0
  outer loop
   vertex 1.401 -0.0805 0.144
   vertex 0.801 -0.0805 0.144
   vertex 1.401 -0.0805 0.544
  endloop
 endfacet
 facet normal 0 1 0
  outer loop
   vertex 1.401 -0.0805 0.544
   vertex 0.801 -0.0805 0.144
   vertex 0.801 -0.0805 0.544
  endloop
 endfacet
 facet normal 1 0 0
  outer loop
   vertex 1.401 -0.5805 0.144
   vertex 1.401 -0.0805 0.144
   vertex 1.401 -0.5805 0.544
  endloop
 endfacet
 facet normal 1 -0 0
  outer loop
   vertex 1.401 -0.5805 0.544
   vertex 1.401 -0.0805 0.144
   vertex 1.401 -0.0805 0.544
  endloop
 endfacet
 facet normal 0 -1 0
  outer loop
   vertex 0.801 -0.5805 0.144
   vertex 1.401 -0.5805 0.144
   vertex 0.801 -0.5805 0.544
  endloop
 endfacet
 facet normal 0 -1 0
  outer loop
   vertex 0.801 -0.5805 0.544
   vertex 1.401 -0.5805 0.144
   vertex 1.401 -0.5805 0.544
  endloop
 endfacet
 facet normal 0 0 1
  outer loop
   vertex 0.801 -0.5805 0.544
   vertex 1.401 -0.5805 0.544
   vertex 0.801 -0.0805 0.544
  endloop
 endfacet
 facet normal -0 0 1
  outer loop
   vertex 0.801 -0.0805 0.544
   vertex 1.401 -0.5805 0.544
   vertex 1.401 -0.0805 0.544
  endloop
 endfacet
 facet normal 0 0 -1
  outer loop
   vertex 1.401 -0.5805 0.144
   vertex 0.801 -0.5805 0.144
   vertex 1.401 -0.0805 0.144
  endloop
 endfacet
 facet normal -0 0 -1
  outer loop
   vertex 1.401 -0.0805 0.144
   vertex 0.801 -0.5805 0.144
   vertex 0.801 -0.0805 0.144
  endloop
 endfacet
 facet normal -1 0 0
  outer loop
   vertex 0.201 -0.0805 0.144
   vertex 0.201 -0.5805 0.144
   vertex 0.201 -0.0805 0.544
  endloop
 endfacet
 facet normal -1 -0 0
  outer loop
   vertex 0.201 -0.0805 0.544
   vertex 0.201 -0.5805 0.144
   vertex 0.201 -0.5805 0.544
  endloop
 endfacet
 facet normal 0 1 -0
  outer loop
   vertex 0.801 -0.0805 0.144
   vertex 0.201 -0.0805 0.144
   vertex 0.801 -0.0805 0.544
  endloop
 endfacet
 facet normal 0 1 0
  outer loop
   vertex 0.801 -0.0805 0.544
   vertex 0.201 -0.0805 0.144
   vertex 0.201 -0.0805 0.544
  endloop
 endfacet
 facet normal 1 0 0
  outer loop
   vertex 0.801 -0.5805 0.144
   vertex 0.801 -0.0805 0.144
   vertex 0.801 -0.5805 0.544
  endloop
 endfacet
 facet normal 1 -0 0
  outer loop
   vertex 0.801 -0.5805 0.544
   vertex 0.801 -0.0805 0.144
   vertex 0.801 -0.0805 0.544
  endloop
 endfacet
 facet normal 0 -1 0
  outer loop
   vertex 0.201 -0.5805 0.144
   vertex 0.801 -0.5805 0.144
   vertex 0.201 -0.5805 0.544
  endloop
 endfacet
 facet normal 0 -1 0
  outer loop
   vertex 0.201 -0.5805 0.544
   vertex 0.801 -0.5805 0.144
   vertex 0.801 -0.5805 0.544
  endloop
 endfacet
 facet normal 0 0 1
  outer loop
   vertex 0.201 -0.5805 0.544
   vertex 0.801 -0.5805 0.544
   vertex 0.201 -0.0805 0.544
  endloop
 endfacet
 facet normal -0 0 1
  outer loop
   vertex 0.201 -0.0805 0.544
   vertex 0.801 -0.5805 0.544
   vertex 0.801 -0.0805 0.544
  endloop
 endfacet
 facet normal 0 0 -1
  outer loop
   vertex 0.801 -0.5805 0.144
   vertex 0.201 -0.5805 0.144
   vertex 0.801 -0.0805 0.144
  endloop
 endfacet
 facet normal -0 0 -1
  outer loop
   vertex 0.801 -0.0805 0.144
   vertex 0.201 -0.5805 0.144
   vertex 0.201 -0.0805 0.144
  endloop
 endfacet
 facet normal -1 0 0
  outer loop
   vertex 0.801 -0.5805 0.144
   vertex 0.801 -1.0805 0.144
   vertex 0.801 -0.5805 0.544
  endloop
 endfacet
 facet normal -1 -0 0
  outer loop
   vertex 0.801 -0.5805 0.544
   vertex 0.801 -1.0805 0.144
   vertex 0.801 -1.0805 0.544
  endloop
 endfacet
 facet normal 0 1 -0
  outer loop
   vertex 1.401 -0.5805 0.144
   vertex 0.801 -0.5805 0.144
   vertex 1.401 -0.5805 0.544
  endloop
 endfacet
 facet normal 0 1 0
  outer loop
   vertex 1.401 -0.5805 0.544
   vertex 0.801 -0.5805 0.144
   vertex 0.801 -0.5805 0.544
  endloop
 endfacet
 facet normal 1 0 0
  outer loop
   vertex 1.401 -1.0805 0.144
   vertex 1.401 -0.5805 0.144
   vertex 1.401 -1.0805 0.544
  endloop
 endfacet
 facet normal 1 -0 0
  outer loop
   vertex 1.401 -1.0805 0.544
   vertex 1.401 -0.5805 0.144
   vertex 1.401 -0.5805 0.544
  endloop
 endfacet
 facet normal 0 -1 0
  outer loop
   vertex 0.801 -1.0805 0.144
   vertex 1.401 -1.0805 0.144
   vertex 0.801 -1.0805 0.544
  endloop
 endfacet
 facet normal 0 -1 0
  outer loop
   vertex 0.801 -1.0805 0.544
   vertex 1.401 -1.0805 0.144
   vertex 1.401 -1.0805 0.544
  endloop
 endfacet
 facet normal 0 0 1
  outer loop
   vertex 0.801 -1.0805 0.544
   vertex 1.401 -1.0805 0.544
   vertex 0.801 -0.5805 0.544
  endloop
 endfacet
 facet normal -0 0 1
  outer loop
   vertex 0.801 -0.5805 0.544
   vertex 1.401 -1.0805 0.544
   vertex 1.401 -0.5805 0.544
  endloop
 endfacet
 facet normal 0 0 -1
  outer loop
   vertex 1.401 -1.0805 0.144
   vertex 0.801 -1.0805 0.144
   vertex 1.401 -0.5805 0.144
  endloop
 endfacet
 facet normal -0 0 -1
  outer loop
   vertex 1.401 -0.5805 0.144
   vertex 0.801 -1.0805 0.144
   vertex 0.801 -0.5805 0.144
  endloop
 endfacet
 facet normal -1 0 0
  outer loop
   vertex 0.201 -0.5805 0.144
   vertex 0.201 -1.0805 0.144
   vertex 0.201 -0.5805 0.544
  endloop
 endfacet
 facet normal -1 -0 0
  outer loop
   vertex 0.201 -0.5805 0.544
   vertex 0.201 -1.0805 0.144
   vertex 0.201 -1.0805 0.544
  endloop
 endfacet
 facet normal 0 1 -0
  outer loop
   vertex 0.801 -0.5805 0.144
   vertex 0.201 -0.5805 0.144
   vertex 0.801 -0.5805 0.544
  endloop
 endfacet
 facet normal 0 1 0
  outer loop
   vertex 0.801 -0.5805 0.544
   vertex 0.201 -0.5805 0.144
   vertex 0.201 -0.5805 0.544
  endloop
 endfacet
 facet normal 1 0 0
  outer loop
   vertex 0.801 -1.0805 0.144
   vertex 0.801 -0.5805 0.144
   vertex 0.801 -1.0805 0.544
  endloop
 endfacet
 facet normal 1 -0 0
  outer loop
   vertex 0.801 -1.0805 0.544
   vertex 0.801 -0.5805 0.144
   vertex 0.801 -0.5805 0.544
  endloop
 endfacet
 facet normal 0 -1 0
  outer loop
   vertex 0.201 -1.0805 0.144
   vertex 0.801 -1.0805 0.144
   vertex 0.201 -1.0805 0.544
  endloop
 endfacet
 facet normal 0 -1 0
  outer loop
   vertex 0.201 -1.0805 0.544
   vertex 0.801 -1.0805 0.144
   vertex 0.801 -1.0805 0.544
  endloop
 endfacet
 facet normal 0 0 1
  outer loop
   vertex 0.201 -1.0805 0.544
   vertex 0.801 -1.0805 0.544
   vertex 0.201 -0.5805 0.544
  endloop
 endfacet
 facet normal -0 0 1
  outer loop
   vertex 0.201 -0.5805 0.544
   vertex 0.801 -1.0805 0.544
   vertex 0.801 -0.5805 0.544
  endloop
 endfacet
 facet normal 0 0 -1
  outer loop
   vertex 0.801 -1.0805 0.144
   vertex 0.201 -1.0805 0.144
   vertex 0.801 -0.5805 0.144
  endloop
 endfacet
 facet normal -0 0 -1
  outer loop
   vertex 0.801 -0.5805 0.144
   vertex 0.201 -1.0805 0.144
   vertex 0.201 -0.5805 0.144
  endloop
 endfacet
endsolid zone0
